<?xml version="1.0" standalone="no"?>
<!DOCTYPE svg PUBLIC "-//W3C//DTD SVG 20010904//EN"
 "http://www.w3.org/TR/2001/REC-SVG-20010904/DTD/svg10.dtd">
<svg version="1.0" xmlns="http://www.w3.org/2000/svg"
 width="600.000000pt" height="600.000000pt" viewBox="0 0 600.000000 600.000000"
 preserveAspectRatio="xMidYMid meet">
<g transform="translate(0.000000,600.000000) scale(0.100000,-0.100000)"
fill="#000000" stroke="none">
<path d="M2880 5248 c-25 -5 -58 -6 -75 -3 -22 4 -26 2 -15 -5 12 -8 8 -10
-15 -11 -45 -1 -62 -5 -105 -27 -25 -12 -40 -15 -40 -8 0 6 -4 5 -9 -3 -5 -8
-17 -15 -28 -17 -35 -4 -63 -16 -63 -26 0 -6 -9 -8 -20 -5 -11 3 -18 2 -15 -3
5 -8 -21 -23 -42 -25 -6 0 -20 -8 -30 -18 -28 -26 -104 -87 -110 -87 -3 0 1 7
8 17 13 15 12 15 -8 3 -12 -8 -20 -21 -18 -31 2 -12 -1 -16 -10 -13 -12 5 -32
-32 -23 -42 3 -2 35 20 71 49 146 116 351 204 532 228 279 36 577 -55 810
-249 50 -42 75 -52 75 -30 0 6 -3 9 -6 6 -9 -9 -76 60 -70 71 4 5 1 13 -5 17
-8 4 -9 3 -5 -4 12 -21 -9 -13 -42 14 -17 15 -29 32 -25 38 4 6 -1 5 -10 -3
-18 -15 -23 -3 -7 17 7 9 7 9 -2 2 -14 -12 -31 -13 -24 -2 3 5 -5 8 -17 8 -13
-1 -21 4 -19 12 1 8 -2 11 -8 7 -10 -6 -72 23 -78 37 -2 4 -10 4 -18 1 -10 -4
-12 0 -7 13 6 17 5 17 -10 5 -13 -11 -17 -11 -17 -1 0 8 -3 11 -6 7 -6 -5 -20
-1 -99 29 -11 4 -29 6 -40 5 -17 -2 -18 0 -5 9 12 9 8 10 -17 5 -18 -4 -33 -3
-33 2 0 4 -17 9 -38 10 -20 1 -77 3 -127 6 -49 2 -110 0 -135 -5z"/>
<path d="M3088 5193 c6 -2 18 -2 25 0 6 3 1 5 -13 5 -14 0 -19 -2 -12 -5z"/>
<path d="M2545 5101 c-3 -5 -2 -12 3 -15 5 -3 9 1 9 9 0 17 -3 19 -12 6z"/>
<path d="M3428 5093 c7 -3 16 -2 19 1 4 3 -2 6 -13 5 -11 0 -14 -3 -6 -6z"/>
<path d="M2482 5069 c-24 -12 -41 -23 -39 -25 4 -5 87 35 87 41 0 7 -1 7 -48
-16z"/>
<path d="M3440 5076 c0 -2 8 -10 18 -17 15 -13 16 -12 3 4 -13 16 -21 21 -21
13z"/>
<path d="M2845 5045 c-82 -15 -151 -38 -217 -71 -43 -22 -60 -24 -177 -24 -71
0 -142 -5 -157 -10 -19 -8 -31 -7 -42 2 -14 12 -14 10 -3 -11 7 -13 9 -21 3
-17 -5 3 -25 -5 -44 -18 -19 -12 -42 -22 -52 -20 -14 2 -16 0 -7 -9 14 -14 15
-30 1 -22 -5 3 -10 1 -10 -5 0 -6 -4 -8 -10 -5 -6 3 -7 -1 -4 -9 3 -9 2 -16
-4 -16 -10 0 -38 -60 -34 -72 1 -5 -9 -8 -23 -8 -14 0 -25 -5 -25 -11 0 -6 -7
-9 -14 -6 -10 4 -13 1 -9 -9 3 -7 -1 -14 -8 -14 -7 0 -10 -3 -7 -6 6 -5 -25
-58 -50 -89 -5 -6 -6 -17 -4 -25 4 -13 3 -13 -11 -2 -13 11 -15 10 -10 -7 3
-11 -3 -40 -12 -65 -17 -44 -28 -55 -38 -38 -2 4 -2 0 0 -8 9 -33 5 -72 -7
-65 -6 4 -7 -1 -3 -11 3 -10 2 -15 -3 -12 -5 4 -10 -4 -11 -15 -1 -12 -9 -71
-18 -132 -18 -117 -15 -346 4 -369 6 -7 12 -34 14 -62 1 -27 11 -63 20 -81 9
-18 17 -37 17 -43 0 -17 60 -151 81 -181 10 -14 15 -30 11 -34 -4 -5 -1 -5 6
-1 11 7 16 -6 15 -41 0 -6 6 -9 15 -5 11 4 14 1 9 -12 -4 -10 -3 -15 3 -11 6
3 10 1 10 -6 0 -10 3 -10 12 -1 8 8 9 15 3 20 -33 23 -138 248 -170 362 -33
117 -45 344 -25 468 14 90 62 246 97 317 36 72 96 175 103 175 3 0 4 -127 2
-281 l-3 -282 -24 -18 c-13 -11 -31 -39 -40 -63 -20 -53 -8 -111 30 -148 l25
-23 0 -236 c0 -189 3 -244 15 -273 9 -20 16 -54 18 -75 1 -22 5 -37 9 -35 4 3
14 -9 23 -26 9 -17 20 -28 25 -25 5 3 12 0 16 -6 5 -8 3 -9 -6 -4 -9 5 -11 4
-6 -3 4 -7 13 -12 21 -12 7 0 20 -6 27 -13 7 -7 21 -16 31 -20 14 -5 16 -11 8
-24 -10 -19 17 -63 38 -63 6 0 11 -4 11 -9 0 -4 12 -20 26 -34 14 -14 23 -31
19 -37 -4 -6 -1 -9 7 -8 7 2 12 -3 10 -11 -3 -12 -1 -12 14 0 10 8 15 9 12 4
-4 -6 7 -21 23 -34 23 -19 27 -26 18 -38 -7 -7 -9 -16 -5 -20 3 -3 6 -1 6 7 0
9 3 10 13 1 8 -6 16 -9 19 -6 8 8 137 -123 130 -132 -4 -4 -3 -5 2 -1 12 10
38 -11 29 -25 -3 -5 -2 -7 3 -4 11 6 79 -59 79 -76 0 -6 7 -12 15 -14 13 -4
13 -3 0 6 -11 8 -11 11 -2 11 7 0 17 -10 22 -22 5 -13 9 -20 9 -15 1 4 9 -1
19 -10 12 -12 16 -22 10 -30 -7 -8 -3 -10 13 -6 15 4 20 3 15 -6 -5 -7 -2 -10
6 -9 7 2 12 -4 10 -12 -2 -8 -1 -12 3 -8 11 11 37 -20 29 -34 -5 -8 -2 -9 9
-5 11 4 17 1 17 -8 0 -8 6 -14 13 -13 6 2 11 -3 9 -9 -1 -7 3 -13 8 -13 6 0
24 -10 40 -22 34 -24 121 -33 113 -11 -3 7 0 13 6 13 6 0 23 13 37 30 15 16
32 27 38 23 6 -3 8 -3 4 1 -12 14 52 75 73 71 11 -2 17 0 14 6 -4 5 -12 6 -18
2 -7 -4 6 12 27 35 22 22 44 38 50 35 6 -3 8 -3 4 2 -4 4 10 22 31 39 21 18
53 49 71 69 17 20 38 37 46 37 8 0 18 10 23 23 10 26 60 74 69 67 4 -3 13 8
20 23 8 15 24 32 37 37 13 5 32 22 42 37 22 34 79 94 69 73 -4 -8 -1 -7 6 3 7
11 25 33 40 50 23 26 25 34 14 42 -11 9 -8 14 17 25 18 8 41 22 51 32 11 10
24 18 29 18 5 0 7 7 4 14 -4 11 -1 13 10 9 10 -4 14 -2 10 4 -10 16 3 44 16
36 5 -3 7 -1 4 5 -11 16 4 44 20 38 10 -4 11 -1 4 12 -4 9 -5 26 0 37 4 11 8
131 8 266 1 237 2 247 22 265 64 58 66 154 6 215 l-26 25 -3 287 c-2 158 -2
287 -1 287 1 0 19 -30 40 -67 124 -217 166 -370 166 -603 -1 -236 -51 -417
-170 -612 -19 -31 -32 -62 -28 -67 10 -17 25 -3 18 16 -4 9 -2 14 3 10 6 -3
16 10 23 29 7 19 17 32 22 28 5 -3 9 -2 7 3 -3 12 34 83 44 83 4 0 8 12 8 28
0 22 2 24 11 12 9 -12 10 -11 6 8 -3 12 -2 22 2 22 4 0 7 8 8 18 0 9 10 41 21
71 12 29 24 72 27 95 3 22 8 57 11 76 16 112 22 179 18 210 -3 19 -6 61 -7 92
-2 31 -6 60 -10 64 -4 4 -4 18 -1 30 4 15 2 24 -5 24 -6 0 -11 11 -11 23 0 28
-38 147 -52 165 -6 6 -8 12 -5 12 4 0 -6 24 -22 54 -21 41 -24 53 -12 48 9 -3
3 7 -12 21 -16 15 -25 32 -21 39 4 7 3 8 -4 4 -8 -5 -12 0 -12 14 0 11 -7 23
-15 26 -8 4 -12 11 -8 17 3 5 1 7 -5 3 -6 -3 -13 -2 -17 4 -3 5 -15 10 -26 10
-17 0 -26 27 -20 63 1 5 -3 6 -8 3 -5 -3 -22 13 -38 37 -15 24 -32 44 -38 46
-31 11 -54 25 -50 31 2 4 -1 7 -8 8 -7 0 -30 7 -52 16 -28 11 -78 15 -166 16
-124 0 -129 1 -202 36 -139 65 -325 88 -482 59z m280 -26 c39 -6 77 -14 85
-17 8 -3 21 -4 29 -3 7 1 10 -2 6 -9 -5 -7 0 -11 11 -10 34 4 45 0 38 -12 -4
-6 -3 -8 3 -5 6 4 24 0 39 -8 16 -8 25 -15 19 -16 -73 -5 -198 1 -209 10 -11
9 -14 8 -12 -5 0 -9 -5 -19 -11 -21 -7 -3 -13 0 -13 7 0 6 5 8 12 4 7 -4 8 -3
4 4 -4 6 -12 9 -19 7 -7 -3 -25 7 -42 23 -26 25 -34 27 -77 22 -26 -4 -56 -14
-67 -24 -11 -10 -25 -15 -31 -11 -6 3 -9 1 -8 -7 2 -10 -24 -13 -124 -14 -101
0 -125 2 -121 13 3 7 14 13 26 13 11 0 28 7 38 16 9 8 27 17 40 18 13 2 31 6
39 9 26 10 113 24 160 26 24 1 46 3 47 5 4 3 51 -2 138 -15z m-52 -89 c24 -27
28 -39 26 -77 l-3 -44 134 -79 c86 -50 138 -76 144 -70 14 14 70 12 83 -1 9
-9 48 6 157 57 143 68 144 69 123 86 -42 34 -91 39 -352 36 l-255 -3 0 38 0
37 263 0 c292 0 334 -6 399 -60 20 -16 48 -53 62 -82 l26 -52 0 -295 0 -296
34 -27 c20 -16 36 -39 39 -58 9 -41 -15 -97 -47 -112 l-26 -11 0 -275 c0 -182
-4 -288 -12 -314 -18 -60 -79 -123 -144 -147 -50 -19 -77 -21 -324 -21 l-270
0 0 35 0 35 173 0 172 0 -40 34 c-29 24 -49 34 -72 33 -43 -1 -82 29 -112 87
-13 25 -22 48 -20 50 9 8 102 -22 127 -41 15 -11 32 -35 38 -53 6 -19 26 -44
45 -57 19 -13 39 -30 45 -37 7 -11 10 7 8 65 -1 60 -7 87 -23 115 -26 44 -21
55 8 18 l21 -27 0 51 c0 28 4 53 9 56 12 8 23 -56 16 -91 -6 -27 -6 -27 10 -8
9 11 20 27 25 35 5 8 11 12 14 9 3 -3 -6 -22 -19 -42 -19 -28 -25 -49 -25 -92
l0 -56 35 28 c20 15 43 43 52 61 18 38 51 57 111 66 l42 5 -15 -37 c-23 -55
-58 -82 -108 -82 -34 0 -49 -7 -79 -35 -21 -20 -38 -40 -38 -45 0 -13 105 -13
152 0 48 14 97 55 114 97 11 25 14 97 14 305 0 258 -1 274 -19 285 -15 10 -22
9 -31 -3 -7 -8 -41 -36 -75 -64 -51 -39 -64 -46 -69 -33 -4 9 1 21 11 28 89
63 131 102 122 116 -16 26 -9 76 15 112 l25 36 -46 83 c-26 46 -64 104 -85
129 -21 26 -38 52 -38 58 0 18 19 13 32 -9 7 -11 21 -20 30 -20 11 0 21 -12
26 -32 5 -18 30 -69 56 -113 l46 -80 0 278 c0 220 -3 285 -14 312 -8 19 -17
35 -19 35 -2 0 -70 -31 -150 -70 -118 -56 -146 -74 -149 -92 -3 -17 15 -44 69
-105 47 -52 69 -84 62 -89 -7 -4 -39 24 -81 69 -63 69 -72 76 -98 70 -41 -8
-80 19 -80 55 0 24 -15 36 -138 108 -119 71 -139 80 -153 68 -8 -8 -23 -14
-32 -14 -15 0 -17 -12 -17 -85 0 -69 -3 -85 -15 -85 -12 0 -15 16 -15 85 0 69
-3 85 -15 85 -8 0 -23 5 -33 11 -16 10 -40 -2 -155 -76 -123 -78 -137 -90
-137 -116 0 -29 -30 -59 -61 -59 -9 0 -21 -11 -27 -25 -6 -14 -18 -25 -27 -25
-19 0 -19 4 0 39 13 26 13 30 0 41 -8 7 -15 22 -15 34 -1 17 -29 35 -158 97
l-157 76 -12 -27 c-8 -19 -13 -118 -15 -316 l-3 -289 23 -19 c23 -18 24 -18
47 4 13 12 28 19 34 15 18 -10 13 -21 -15 -34 -23 -10 -25 -15 -19 -49 3 -21
1 -50 -4 -66 -10 -25 -8 -30 21 -54 18 -15 59 -50 91 -79 51 -45 62 -51 91
-46 18 3 43 0 55 -6 18 -10 27 -9 49 7 70 48 145 83 155 73 13 -13 21 -7 -85
-67 -70 -39 -88 -54 -88 -71 0 -31 -34 -63 -68 -63 -21 0 -32 -8 -47 -32 -10
-18 -63 -100 -117 -183 l-99 -150 33 -28 c34 -29 84 -47 131 -47 27 0 27 0 27
68 l0 67 77 65 c42 36 84 70 93 77 14 10 31 0 108 -64 l92 -76 0 -68 0 -69 55
0 55 0 0 -35 0 -35 -120 0 -120 0 0 90 0 90 -55 0 -55 0 0 -90 0 -90 -98 0
c-130 0 -191 18 -246 74 -71 70 -76 98 -76 407 l0 267 -35 35 c-26 26 -35 44
-35 69 0 40 31 94 59 103 21 6 21 12 21 304 l0 297 26 52 c14 29 42 66 62 82
66 54 105 60 420 60 l284 0 36 31 c31 27 41 30 76 26 29 -4 49 -15 69 -37z
m597 -129 c3 -4 13 -7 23 -5 15 2 16 0 6 -12 -6 -8 -14 -12 -16 -10 -3 2 -26
-7 -53 -20 -26 -13 -53 -24 -60 -24 -6 0 -8 -5 -4 -12 5 -7 3 -8 -5 -4 -7 5
-20 1 -29 -7 -24 -20 -59 -30 -67 -18 -3 6 0 9 7 8 7 -2 10 -2 5 0 -4 3 -4 10
0 16 3 7 -2 5 -13 -4 -19 -17 -49 -15 -38 2 3 5 -11 0 -30 -12 -31 -18 -38
-19 -56 -6 -11 7 -17 17 -12 22 4 5 3 6 -3 3 -17 -10 -57 11 -49 24 5 8 0 7
-11 -2 -10 -8 -16 -10 -12 -3 4 7 -1 14 -13 18 -11 3 -20 11 -20 16 0 6 -4 7
-10 4 -5 -3 -10 -1 -10 5 0 7 -7 9 -16 6 -8 -3 -13 -2 -9 3 3 5 -1 11 -7 14
-7 2 36 5 97 6 60 1 111 3 113 5 7 8 286 -5 292 -13z m-715 -74 c2 -7 6 -47 8
-89 l5 -77 -29 6 c-17 3 -35 0 -44 -7 -9 -7 -15 -8 -15 -2 0 13 -118 14 -126
1 -3 -5 -9 -7 -14 -4 -5 3 -12 0 -16 -6 -5 -8 -3 -9 6 -4 10 6 12 4 7 -8 -3
-10 -3 -17 2 -17 15 0 21 -42 9 -64 -11 -20 -10 -20 7 -6 17 14 18 13 12 -2
-3 -10 -2 -18 3 -18 6 0 10 -9 10 -21 0 -11 5 -29 10 -39 8 -14 7 -26 -2 -40
-11 -18 -10 -23 4 -34 12 -9 14 -16 6 -30 -8 -14 -7 -17 1 -12 6 4 9 2 6 -7
-3 -7 3 -22 15 -32 25 -23 26 -39 1 -25 -11 5 -22 6 -25 2 -5 -8 1 -10 42 -13
9 -1 23 -6 30 -12 6 -5 12 -6 12 -2 0 5 9 -2 19 -14 14 -16 21 -18 24 -9 3 7
6 2 6 -13 1 -14 6 -30 12 -36 6 -6 9 -58 7 -142 -2 -81 1 -132 7 -135 6 -2 7
-6 4 -10 -11 -11 -87 71 -85 91 0 11 -5 17 -15 15 -18 -2 -82 81 -71 93 4 5 2
5 -5 1 -11 -6 -23 4 -91 77 -29 32 -31 38 -20 57 7 11 19 18 26 15 7 -3 11 -1
8 3 -2 4 7 21 21 37 14 17 22 24 18 16 -5 -9 -4 -12 3 -7 8 5 8 15 2 32 -5 13
-9 28 -9 32 3 20 -3 30 -22 35 -13 4 -18 10 -13 18 4 8 3 10 -4 5 -7 -4 -13
-2 -13 3 -1 6 -2 17 -3 24 0 6 -5 12 -11 12 -5 0 -16 4 -24 9 -10 7 -12 5 -6
-5 7 -12 5 -12 -6 -1 -12 11 -12 14 1 23 13 9 12 10 -2 6 -9 -3 -28 3 -41 14
-14 10 -30 19 -35 19 -6 0 -14 5 -18 12 -5 7 -3 8 6 3 10 -6 12 -4 7 8 -4 11
-1 17 9 17 19 0 104 85 104 104 0 16 68 76 86 76 6 0 19 9 29 20 10 12 25 18
32 16 7 -3 12 0 10 6 -1 7 4 12 11 13 8 0 19 7 25 16 29 38 81 42 92 6z m155
9 c1 5 14 -6 30 -25 16 -19 33 -32 36 -28 4 4 2 7 -4 7 -7 0 -12 4 -12 10 0 6
10 5 25 -2 14 -6 24 -17 21 -24 -3 -8 0 -11 9 -8 20 8 77 -37 70 -56 -4 -11
-1 -10 9 3 12 16 14 15 27 -15 16 -41 40 -73 57 -74 29 -2 33 -5 26 -16 -6 -9
-3 -9 9 1 19 15 52 7 41 -10 -4 -7 -3 -9 3 -6 6 4 30 -12 54 -35 24 -23 39
-39 32 -35 -6 4 -15 3 -18 -3 -4 -6 -3 -9 2 -8 4 1 19 -2 32 -6 24 -8 24 -9 5
-24 -16 -12 -16 -14 -1 -9 21 8 49 -2 41 -14 -3 -5 0 -9 6 -9 6 0 8 -5 4 -12
-4 -6 -3 -8 4 -4 6 3 21 -8 33 -26 13 -17 18 -28 11 -24 -7 4 -12 2 -12 -3 0
-6 6 -11 14 -11 14 0 31 -28 27 -45 -1 -5 4 -14 11 -20 25 -19 55 -70 52 -89
-1 -10 -12 -28 -23 -40 -17 -18 -20 -30 -15 -62 3 -21 8 -43 11 -47 2 -4 -6
-6 -19 -3 -18 3 -24 -1 -24 -16 0 -17 2 -18 12 -3 7 9 15 12 18 7 7 -11 -22
-27 -55 -31 -5 0 -7 -6 -3 -13 5 -8 0 -9 -15 -5 -16 4 -25 -1 -35 -21 -7 -15
-11 -34 -8 -42 2 -8 -5 -3 -17 12 -12 15 -20 32 -17 37 3 5 -1 12 -10 15 -10
4 -13 2 -9 -7 4 -6 0 -4 -7 5 -10 11 -19 14 -28 8 -9 -6 -18 -4 -23 3 -6 9 -7
8 -5 -3 3 -8 -5 -23 -17 -35 -34 -31 -57 -73 -49 -86 4 -7 3 -9 -3 -6 -6 4
-10 -5 -10 -21 1 -15 -3 -40 -8 -56 -6 -23 -5 -27 5 -21 9 5 11 4 6 -4 -4 -6
-2 -18 4 -26 8 -10 9 -15 2 -15 -6 0 -13 4 -16 9 -9 14 -166 35 -164 22 2 -21
-4 -31 -19 -32 -17 -1 -17 -2 0 -6 16 -4 22 -20 18 -50 -1 -6 3 -14 9 -18 5
-3 10 -14 10 -24 0 -10 9 -26 20 -36 11 -10 17 -22 13 -28 -3 -6 -1 -7 5 -3 7
4 12 3 12 -1 0 -10 81 -47 97 -45 6 2 14 -2 18 -8 5 -8 10 -8 20 0 16 13 27
-9 32 -67 3 -40 2 -43 -19 -39 -13 1 -21 5 -18 7 3 3 -3 17 -13 32 -10 15 -15
33 -11 39 4 7 3 8 -5 4 -6 -4 -14 0 -17 8 -3 9 -11 13 -17 9 -5 -3 -7 -1 -4 4
7 11 -27 26 -50 24 -6 -1 -14 3 -18 9 -9 15 -61 12 -75 -5 -6 -8 -9 -19 -5
-24 3 -6 1 -20 -5 -31 -8 -16 -8 -18 4 -14 9 3 19 -4 26 -17 11 -19 10 -25 -6
-36 -10 -7 -13 -13 -8 -13 6 0 15 5 22 12 9 9 12 9 12 -1 0 -7 5 -9 12 -5 8 5
9 2 5 -9 -3 -9 -1 -19 5 -23 7 -4 8 -3 4 4 -4 7 -3 12 3 12 5 0 13 -4 16 -10
3 -5 20 -14 38 -19 25 -8 12 -10 -61 -8 -53 1 -94 -2 -97 -8 -3 -6 -7 -5 -11
2 -4 8 -13 9 -30 3 -23 -9 -31 0 -25 33 1 5 -4 5 -10 1 -9 -5 -10 -2 -6 9 4
10 -1 22 -13 30 -11 8 -17 17 -12 22 4 5 2 5 -4 2 -16 -9 -32 37 -37 107 l-3
58 27 -33 c15 -19 25 -38 22 -44 -4 -5 -3 -7 2 -3 4 4 17 1 29 -7 11 -8 30
-15 41 -15 39 0 74 67 44 85 -6 4 -8 13 -5 21 3 7 0 16 -6 20 -7 5 -8 2 -3 -6
5 -9 4 -11 -3 -6 -9 5 -9 13 -1 27 9 19 9 19 -10 10 -17 -10 -19 -8 -16 10 3
17 1 19 -10 9 -10 -8 -15 -8 -21 1 -5 8 -3 10 7 4 8 -4 -1 6 -20 23 -33 29
-33 30 -16 56 17 25 34 38 19 14 -4 -7 -3 -8 4 -4 6 4 8 14 5 23 -4 11 -3 14
5 9 7 -4 12 -2 12 4 0 6 5 8 12 4 7 -5 9 -2 5 9 -4 10 6 24 29 42 19 14 34 33
34 41 0 7 5 14 11 14 6 0 8 -7 5 -16 -3 -8 -2 -13 3 -10 5 3 9 17 9 32 0 18
11 35 38 57 21 18 42 31 47 29 5 -1 6 2 2 8 -3 5 -2 10 4 10 6 0 7 7 4 17 -5
12 -3 14 7 8 8 -5 11 -4 7 2 -9 15 59 77 74 68 7 -5 10 -4 6 2 -10 16 16 60
32 55 8 -3 11 0 7 7 -5 7 1 11 14 11 12 0 19 4 16 9 -4 5 2 8 11 6 10 -2 21
-4 25 -4 4 -1 5 -7 3 -13 -3 -7 11 -31 31 -53 20 -22 33 -35 30 -28 -4 7 1 9
14 6 14 -4 28 3 45 23 17 19 25 24 26 14 0 -8 5 -4 11 10 6 14 10 31 9 38 -1
6 8 13 21 13 16 1 18 3 6 6 -11 3 -15 10 -11 21 3 9 3 14 -1 10 -10 -9 -55 34
-48 46 3 5 -1 5 -9 0 -24 -15 -37 -13 -42 7 -3 13 -1 17 6 12 7 -4 -3 12 -20
36 -18 24 -30 49 -26 54 3 6 1 7 -5 3 -7 -4 -12 -2 -12 4 0 6 -4 8 -10 5 -5
-3 -10 1 -10 10 0 9 -9 19 -20 22 -11 3 -18 9 -15 13 3 5 0 12 -6 16 -8 4 -9
3 -5 -4 5 -8 -1 -12 -14 -12 -13 0 -19 4 -14 12 4 6 3 9 -2 6 -5 -3 -31 -2
-58 2 -53 8 -111 -3 -133 -26 -8 -8 -18 -12 -23 -9 -4 3 -14 -2 -21 -11 -11
-14 -10 -18 5 -30 10 -7 37 -16 60 -19 22 -4 50 -8 61 -10 11 -2 25 -4 30 -5
6 0 2 -5 -8 -11 -18 -11 -14 -29 6 -29 7 0 6 4 -3 10 -8 5 -10 10 -4 10 22 0
23 -13 3 -41 -12 -17 -15 -29 -9 -29 6 0 -1 -11 -17 -24 -46 -39 -129 -121
-113 -111 13 8 13 6 1 -8 -13 -16 -36 -14 -26 3 3 5 1 11 -4 15 -11 6 -7 -27
5 -48 5 -8 2 -7 -9 2 -15 12 -17 12 -12 -2 4 -9 -2 -21 -14 -29 -12 -8 -18
-18 -14 -21 3 -4 1 -7 -5 -7 -7 0 -12 -8 -13 -17 0 -12 -2 -14 -6 -5 -6 16
-40 -26 -35 -43 2 -5 -2 -4 -9 3 -17 16 -35 16 -21 -1 8 -9 2 -21 -26 -47 -20
-19 -32 -28 -26 -20 14 21 18 240 4 240 -7 0 -8 4 -1 13 6 6 21 25 33 40 20
24 36 32 70 36 10 1 53 74 54 91 0 8 4 23 9 34 5 11 4 26 -3 36 -7 11 -7 21
-1 27 9 9 17 37 24 81 2 13 9 29 15 37 7 8 9 15 4 15 -4 0 1 7 12 16 10 8 14
13 8 10 -7 -3 -15 1 -18 10 -3 8 -2 13 3 10 5 -3 11 0 14 7 6 17 -4 19 -136
20 -97 2 -122 7 -99 21 4 2 8 34 7 70 0 36 3 66 8 66 4 0 7 7 7 16 0 8 4 13 9
9 5 -3 13 0 17 6 5 9 11 7 21 -6 7 -11 13 -15 13 -9z m-883 -13 c-6 -9 13 -28
28 -29 29 -1 65 -18 65 -30 0 -13 13 -19 34 -15 4 1 28 -10 51 -24 24 -14 51
-25 59 -25 9 0 16 -4 16 -9 0 -5 -10 -7 -22 -5 -14 3 -10 -1 10 -10 17 -8 32
-19 32 -25 0 -5 3 -17 7 -27 4 -11 3 -15 -4 -11 -6 4 -14 0 -17 -9 -4 -10 -2
-13 7 -8 9 6 9 5 0 -7 -10 -13 -29 -15 -93 -11 -54 3 -85 1 -94 -8 -9 -6 -20
-9 -26 -5 -5 3 -11 1 -11 -4 -1 -6 -2 -15 -3 -20 0 -5 -5 -13 -10 -18 -5 -4
-6 -3 -2 4 3 6 3 14 -1 16 -9 6 -11 -173 -2 -188 4 -5 6 -22 5 -37 -1 -14 2
-24 6 -22 4 3 8 -1 8 -10 0 -8 2 -20 3 -28 2 -7 2 -10 0 -7 -2 4 -17 0 -33 -8
-17 -8 -34 -12 -39 -8 -6 3 -10 118 -11 281 0 186 3 273 10 269 5 -3 10 2 10
13 0 10 3 22 7 25 9 9 15 9 10 0z m1526 -30 c-3 -21 -11 -41 -17 -45 -8 -6 -8
-8 0 -8 6 0 14 -22 18 -50 4 -27 11 -52 17 -55 7 -5 6 -12 -2 -21 -7 -8 -7
-14 -1 -14 5 0 13 -7 16 -16 3 -8 2 -12 -4 -9 -6 4 -10 -7 -10 -24 0 -16 3
-32 8 -34 4 -3 6 -42 4 -87 l-4 -81 -19 22 c-10 12 -23 38 -29 58 -5 20 -17
45 -26 56 -8 11 -13 14 -9 8 3 -7 1 -13 -4 -13 -6 0 -11 5 -11 11 0 5 -4 8 -9
4 -13 -7 -30 26 -23 44 3 9 0 11 -7 6 -16 -9 -64 43 -56 63 4 12 2 12 -8 4
-24 -20 -27 -1 -4 20 l22 19 -22 -13 c-20 -11 -26 -10 -48 13 -15 15 -23 32
-20 40 6 17 66 49 90 49 8 0 15 5 15 11 0 6 7 8 16 5 8 -3 13 -2 10 3 -8 12
22 23 37 14 7 -3 9 -3 5 2 -4 4 12 18 35 30 23 12 43 23 44 24 1 0 -1 -16 -4
-36z m41 -5 c10 -37 7 -138 -4 -138 -5 0 -10 12 -10 26 0 15 -5 44 -11 65 -12
38 -7 69 10 69 5 0 11 -10 15 -22z m-963 -223 c34 -99 36 -43 3 68 -4 12 0 17
15 17 15 0 23 -10 31 -40 5 -22 15 -58 20 -80 21 -81 23 -37 4 88 -4 29 -2 32
19 32 22 0 25 -5 34 -77 l10 -78 1 78 c2 75 3 77 27 77 25 0 25 -1 25 -82 0
-45 2 -79 5 -77 2 3 10 40 16 82 10 66 14 77 31 77 19 0 20 -4 13 -75 -4 -41
-5 -75 -2 -75 3 0 13 34 22 75 13 62 20 75 36 75 22 0 23 -5 4 -90 -7 -36 -12
-67 -9 -69 2 -2 6 2 8 10 47 147 48 149 68 149 15 0 19 -5 15 -17 -2 -10 -15
-53 -28 -95 l-23 -78 -183 0 c-168 0 -183 1 -183 18 0 16 -28 111 -46 155 -6
15 -3 18 16 15 19 -2 28 -17 51 -83z m-231 31 c0 -2 -7 -7 -16 -10 -8 -3 -12
-2 -9 4 6 10 25 14 25 6z m-121 -55 c33 -10 83 -35 110 -55 48 -36 141 -131
141 -145 0 -4 -19 -26 -43 -49 l-43 -43 -20 22 c-29 34 -105 79 -131 79 -13 0
-26 -6 -29 -14 -7 -18 27 -95 62 -142 l27 -35 -47 -47 -47 -47 -54 57 c-30 32
-70 91 -91 133 -32 66 -38 88 -41 158 -3 55 0 90 9 107 23 42 101 51 197 21z
m989 -76 c53 -23 132 -103 132 -135 0 -32 17 -50 45 -50 12 0 30 -9 40 -20 18
-20 18 -21 -25 -65 l-44 -45 -23 22 c-12 11 -20 24 -18 29 9 14 -8 41 -33 50
-18 7 -31 6 -47 -5 -21 -14 -25 -12 -59 23 -32 33 -35 39 -21 51 8 7 15 25 15
41 0 43 -49 71 -116 67 -65 -4 -62 16 5 36 61 19 104 19 149 1z m-215 -20 c-3
-9 -8 -14 -10 -11 -3 3 -2 9 2 15 9 16 15 13 8 -4z m-63 -30 c0 -13 -28 -15
-189 -15 -172 0 -213 5 -194 24 3 3 91 6 195 6 160 0 188 -2 188 -15z m-25
-75 c-18 -35 -49 -57 -93 -66 -27 -6 -32 -11 -32 -35 0 -28 -2 -29 -45 -29
-43 0 -45 1 -45 30 0 21 -5 30 -16 30 -44 0 -114 58 -114 95 0 3 81 5 180 5
l181 0 -16 -30z m-542 -113 l68 -70 -27 -28 -26 -27 -58 71 c-56 71 -90 126
-90 147 0 22 67 -25 133 -93z m727 -121 c-52 -58 -96 -106 -100 -106 -3 0 -18
12 -33 28 l-26 27 97 108 96 107 30 -29 29 -29 -93 -106z m-1023 82 c4 -7 6
-22 5 -33 -2 -15 0 -16 6 -7 7 11 10 11 15 -2 4 -9 4 -24 1 -33 -4 -11 -2 -14
3 -8 4 6 15 12 23 13 8 2 12 1 9 -3 -4 -3 4 -17 18 -31 23 -23 24 -52 1 -38
-7 5 -8 2 -4 -5 6 -9 12 -9 25 3 15 14 19 14 36 -2 11 -9 17 -13 13 -8 -8 9
28 48 60 65 12 6 22 18 22 26 0 7 4 17 10 20 6 3 7 -1 4 -10 -4 -10 -2 -15 7
-13 8 2 13 -3 11 -10 -1 -8 3 -12 10 -10 16 6 50 -31 41 -45 -3 -6 -1 -7 5 -3
8 4 10 -3 7 -24 -2 -17 0 -28 6 -24 5 3 7 10 4 15 -4 5 -1 9 4 9 20 0 11 -19
-19 -40 -16 -12 -34 -18 -40 -15 -5 3 -10 1 -10 -4 0 -6 -6 -11 -14 -11 -7 0
-21 -10 -30 -22 -9 -13 -14 -16 -10 -8 7 13 5 13 -9 2 -9 -8 -22 -10 -28 -6
-8 4 -9 3 -5 -4 4 -7 1 -12 -8 -12 -8 0 -17 4 -20 9 -3 5 -21 5 -41 1 -30 -7
-38 -5 -50 13 -18 26 -20 41 -3 31 7 -4 8 -3 4 4 -9 15 -38 3 -29 -12 3 -6 -3
-3 -15 7 -11 10 -19 27 -17 37 2 12 -1 17 -9 14 -8 -3 -26 6 -42 20 -23 20
-25 25 -9 20 20 -6 20 -5 1 10 -20 16 -20 16 0 17 10 0 13 3 7 6 -7 2 -13 22
-13 43 0 29 6 43 22 54 27 19 34 20 45 4z m693 -124 c0 -101 -3 -120 -21 -145
-11 -16 -17 -33 -14 -39 3 -6 -1 -7 -9 -4 -9 3 -13 10 -10 16 3 5 5 72 5 149
l-2 139 26 0 25 0 0 -116z m-151 -112 l84 -94 -29 -29 -29 -29 -117 138 -116
137 26 27 25 28 36 -43 c20 -23 74 -84 120 -135z m335 48 c25 -27 27 -33 14
-48 -135 -162 -340 -387 -359 -394 -22 -8 -69 29 -69 55 0 8 32 49 72 93 136
149 301 324 307 324 3 0 19 -14 35 -30z m417 -23 c-10 -9 -11 -8 -5 6 3 10 9
15 12 12 3 -3 0 -11 -7 -18z m162 -29 c5 -43 4 -120 -2 -181 -1 -4 -10 -3 -21
3 -25 13 -88 4 -102 -15 -5 -6 -12 -4 -18 5 -5 8 -10 10 -10 4 0 -7 -6 -14
-14 -17 -12 -5 -12 0 0 30 10 22 13 46 8 62 -13 45 -10 55 20 66 16 5 46 27
66 47 29 30 39 35 50 25 10 -10 12 -9 7 6 -4 9 -3 17 2 17 5 0 11 -24 14 -52z
m-239 9 c52 -68 69 -142 45 -204 -11 -30 -47 -73 -61 -73 -4 0 -9 39 -9 88 -1
76 -2 81 -10 42 -13 -73 -10 -130 6 -146 8 -9 15 -13 15 -9 0 3 5 3 10 0 19
-11 0 -26 -20 -15 -13 7 -20 6 -23 -3 -2 -6 -8 -9 -12 -5 -4 4 -2 14 4 22 10
11 8 18 -7 33 -52 50 -68 110 -47 179 14 47 61 124 76 124 4 0 19 -15 33 -33z
m-810 -4 c2 -10 8 -18 14 -18 6 0 14 -4 19 -9 5 -5 3 -6 -4 -2 -22 12 -14 -10
9 -30 22 -19 23 -19 9 1 -8 11 0 5 18 -13 18 -18 29 -37 25 -44 -4 -7 -3 -8 4
-4 7 4 12 1 12 -7 0 -8 8 -21 17 -28 15 -12 16 -12 8 1 -4 8 1 6 12 -5 18 -18
18 -21 4 -32 -9 -7 -20 -12 -26 -13 -5 0 -3 5 5 10 8 5 10 10 4 10 -6 0 -18
-8 -25 -17 -8 -9 -9 -14 -3 -10 7 4 15 0 18 -9 4 -10 0 -18 -13 -21 -10 -2
-24 -15 -31 -29 -7 -13 -17 -21 -22 -18 -4 3 -8 -4 -8 -15 0 -13 -7 -21 -16
-21 -12 0 -15 7 -12 24 4 17 1 23 -9 19 -7 -3 -13 -1 -13 5 0 16 -58 20 -64 5
-8 -19 -25 -16 -58 12 -34 29 -50 31 -72 9 -9 -8 -21 -12 -27 -8 -7 4 -9 3 -5
-4 3 -6 1 -15 -6 -21 -7 -6 -29 -24 -49 -40 -20 -17 -39 -27 -43 -24 -4 4 -4
-1 0 -11 5 -13 4 -17 -3 -13 -6 4 -14 0 -17 -9 -3 -8 -11 -12 -16 -9 -6 4 -9
1 -8 -6 2 -8 -7 -14 -20 -15 -12 -1 -26 -5 -30 -9 -4 -5 2 -5 13 -1 18 7 18 5
-3 -17 -22 -23 -29 -39 -14 -35 4 2 16 -6 28 -18 16 -16 21 -32 20 -65 -1 -38
-5 -44 -25 -47 -16 -3 -21 0 -16 9 5 8 4 10 -3 5 -6 -4 -26 1 -44 11 -18 9
-36 16 -40 15 -9 -2 -4 20 12 48 8 14 13 29 12 33 -1 5 2 6 7 3 5 -3 16 5 25
19 9 14 13 25 10 25 -4 0 0 8 8 18 9 9 23 31 31 47 9 17 30 45 46 64 17 18 29
37 26 41 -6 10 24 24 45 21 12 -1 13 0 1 7 -19 13 -5 32 24 32 13 0 31 10 39
22 9 12 16 18 16 13 0 -6 5 -3 10 5 5 8 7 24 4 35 -4 11 -3 17 0 14 4 -4 18 4
31 17 13 13 31 24 40 24 9 0 13 5 10 10 -4 6 -3 9 2 8 10 -3 92 43 91 51 -4
35 11 39 16 4z m649 -231 c41 -23 77 -77 77 -113 0 -16 -3 -29 -7 -29 -4 0
-29 21 -55 47 -26 26 -48 43 -48 37 0 -5 20 -30 45 -54 50 -49 47 -66 -8 -56
-67 12 -119 77 -133 164 l-6 39 52 -8 c28 -4 66 -16 83 -27z m363 -46 c-20
-68 -70 -116 -121 -116 -19 0 -35 3 -35 6 0 3 19 29 42 58 l42 51 -52 -49
c-28 -28 -54 -47 -57 -44 -9 9 12 79 30 106 21 28 65 51 118 61 51 8 54 1 33
-73z m-556 -96 c0 -20 -19 -40 -39 -40 -8 0 -41 28 -72 62 l-56 63 24 32 25
32 59 -67 c32 -37 59 -74 59 -82z m-552 56 l32 -30 0 32 c0 30 2 32 27 29 26
-3 27 -6 24 -53 -2 -47 0 -51 39 -83 32 -26 39 -36 30 -46 -10 -12 -26 -2 -88
49 -43 35 -88 76 -101 90 -14 14 -28 26 -32 26 -4 0 -54 -40 -110 -89 -80 -69
-107 -87 -117 -79 -7 6 -9 15 -5 19 4 4 58 50 118 102 123 106 106 103 183 33z
m1150 -11 c-2 -76 -8 -89 -28 -57 -9 13 -10 13 -7 1 3 -9 -1 -16 -9 -16 -8 0
-14 4 -14 9 0 5 -12 1 -27 -8 -23 -13 -21 -10 8 17 20 19 45 55 55 81 11 27
20 48 21 48 1 0 2 -34 1 -75z m-770 -74 c3 -64 6 -77 37 -117 40 -52 48 -75
43 -130 l-3 -39 -100 0 -100 0 -3 53 c-3 55 15 98 58 137 16 15 20 30 20 85 0
64 12 94 35 87 5 -2 11 -36 13 -76z m-244 54 c-4 -8 7 -27 24 -45 43 -42 81
-41 116 5 30 39 51 39 36 1 -5 -13 -6 -33 -4 -43 7 -24 -29 -89 -46 -85 -6 1
-9 -2 -6 -7 3 -5 -1 -14 -9 -21 -8 -7 -15 -23 -15 -36 0 -21 -3 -22 -37 -17
-21 3 -40 10 -42 16 -2 5 -7 3 -12 -4 -4 -7 -5 7 -2 32 3 24 14 53 24 65 11
11 19 24 19 30 0 12 -56 75 -61 69 -3 -2 -6 9 -7 25 -2 21 2 30 13 30 9 0 12
-6 9 -15z m859 -82 c-6 -16 -15 -16 -33 0 -12 10 -12 9 -2 -4 8 -11 8 -21 -3
-42 -16 -31 -45 -63 -45 -50 0 5 6 15 12 21 10 10 10 14 1 20 -21 13 19 68 50
68 16 0 23 -4 20 -13z m153 -43 c0 -11 -4 -20 -8 -20 -4 0 -7 -3 -6 -7 3 -17
-15 -43 -25 -36 -7 4 -8 0 -3 -13 4 -10 4 -15 0 -12 -3 4 -15 -1 -25 -11 -10
-9 -36 -18 -58 -19 -21 -2 -48 -5 -60 -7 -25 -5 -26 -1 -4 24 12 15 21 17 34
10 19 -10 49 -3 49 12 0 5 5 9 11 9 5 0 7 -5 4 -11 -4 -6 2 -5 13 2 12 7 18
17 15 23 -4 5 -1 6 6 2 8 -5 14 0 18 13 3 12 9 21 13 21 4 0 10 9 13 20 3 11
7 20 9 20 2 0 4 -9 4 -20z m-1199 -68 c6 -4 13 -41 15 -88 l3 -82 -24 5 c-14
2 -28 6 -33 9 -4 3 -8 0 -8 -5 0 -6 -8 -11 -17 -11 -15 0 -15 2 -4 9 10 7 14
29 14 77 -1 80 17 109 54 86z m317 -167 c10 -8 23 -12 27 -9 5 3 9 0 9 -7 0
-10 3 -10 12 -1 7 7 40 12 79 12 40 0 71 5 75 11 4 8 13 4 25 -12 13 -16 19
-19 19 -9 0 12 15 14 92 12 89 -4 92 -4 65 -18 -15 -8 -33 -12 -39 -8 -7 4 -8
3 -4 -4 7 -12 -10 -16 -48 -12 -11 1 -16 -3 -11 -10 5 -7 -2 -10 -22 -7 -15 2
-33 0 -40 -5 -6 -5 -58 -10 -115 -11 -122 -2 -246 12 -226 25 8 5 3 6 -15 2
-16 -4 -33 -1 -42 6 -8 6 -20 8 -26 4 -8 -5 -9 -3 -4 6 6 10 4 12 -8 7 -19 -7
-47 1 -47 13 0 12 133 10 148 -2 8 -7 12 -7 12 1 0 6 11 11 25 11 14 0 25 5
25 10 0 14 11 12 34 -5z m-459 -23 c153 -4 178 -7 255 -32 92 -31 207 -50 299
-50 78 0 219 25 289 52 46 17 90 22 232 29 96 4 186 10 200 15 21 6 -274 -290
-597 -599 -140 -134 -129 -136 -313 41 -266 254 -575 564 -555 556 11 -4 97
-9 190 -12z"/>
<path d="M2966 4894 c-22 -22 -20 -50 6 -68 19 -13 25 -14 43 -2 26 17 31 49
10 70 -21 20 -39 20 -59 0z m44 -28 c0 -21 -21 -31 -31 -15 -5 8 -3 17 4 21
18 12 27 10 27 -6z"/>
<path d="M2914 4872 c3 -5 0 -13 -6 -15 -9 -4 -10 -6 -1 -6 17 -1 25 16 12 25
-7 4 -9 3 -5 -4z"/>
<path d="M2286 4825 c-86 -30 -82 -36 85 -118 145 -71 154 -74 176 -60 19 13
28 13 53 3 27 -11 34 -9 82 22 29 19 90 58 135 87 126 80 123 81 -211 81 -213
-1 -290 -4 -320 -15z m550 -27 c7 -7 -12 -12 -43 -11 -6 0 -9 -6 -5 -15 4 -11
1 -14 -12 -9 -11 5 -15 3 -10 -5 5 -7 0 -9 -14 -6 -12 4 -20 2 -17 -2 8 -12
-41 -43 -54 -35 -7 4 -8 0 -5 -10 6 -14 1 -16 -25 -12 -18 3 -31 1 -31 -5 0
-6 7 -7 16 -4 8 3 12 2 9 -4 -8 -13 -35 -13 -35 0 0 6 -9 6 -23 1 -14 -6 -30
-5 -41 1 -13 7 -17 7 -12 0 10 -17 -12 -24 -36 -11 -13 6 -33 21 -46 33 -22
20 -23 20 -16 1 7 -20 7 -20 -17 0 -43 37 -63 51 -56 38 4 -7 -15 0 -42 15
-43 22 -48 28 -33 36 9 6 37 13 62 16 62 7 477 -3 486 -12z"/>
<path d="M2555 4701 c-3 -5 -2 -12 3 -15 5 -3 9 1 9 9 0 17 -3 19 -12 6z"/>
<path d="M3843 4122 c-9 -5 -6 -12 10 -21 19 -13 21 -12 10 1 -7 8 -10 18 -6
21 9 9 1 8 -14 -1z"/>
<path d="M2065 4070 c-3 -6 1 -7 9 -4 18 7 21 14 7 14 -6 0 -13 -4 -16 -10z"/>
<path d="M2096 4044 c-21 -20 -20 -37 2 -57 33 -30 72 -15 72 28 0 42 -44 59
-74 29z m43 -40 c-9 -11 -15 -12 -23 -4 -8 8 -6 15 9 26 23 17 34 2 14 -22z"/>
<path d="M3810 4040 c-14 -26 -4 -57 20 -65 44 -14 80 41 48 73 -19 19 -56 14
-68 -8z m55 -12 c4 4 6 0 3 -8 -5 -15 -38 -22 -38 -7 0 4 0 12 0 18 0 8 4 9
13 0 8 -6 17 -7 22 -3z"/>
<path d="M2150 3950 c-9 -6 -10 -10 -3 -10 6 0 15 5 18 10 8 12 4 12 -15 0z"/>
<path d="M2178 3922 c-17 -3 -18 -24 -17 -270 1 -147 4 -278 8 -291 6 -22 21
-3 119 152 99 153 112 179 102 197 -6 11 -9 28 -6 38 3 12 -17 35 -66 77 -107
92 -122 101 -140 97z m37 -42 c-3 -5 -2 -10 4 -10 16 0 106 -83 105 -96 -1 -7
5 -10 15 -7 9 4 13 3 9 -2 -4 -4 0 -21 8 -37 15 -30 12 -78 -5 -78 -5 0 -14
-13 -21 -30 -7 -16 -16 -27 -21 -24 -5 3 -9 -2 -9 -10 0 -17 -40 -87 -40 -71
0 6 -9 -9 -20 -32 -10 -24 -24 -43 -30 -43 -6 0 -9 -4 -6 -9 3 -4 0 -16 -7
-25 -10 -13 -12 29 -12 206 0 137 4 226 10 230 6 5 5 8 -3 8 -10 0 -10 5 -2
20 6 11 15 20 21 20 6 0 7 -4 4 -10z"/>
<path d="M2256 3587 c3 -10 9 -15 12 -12 3 3 0 11 -7 18 -10 9 -11 8 -5 -6z"/>
<path d="M2565 3460 c-4 -6 -11 -7 -17 -4 -6 4 -8 2 -5 -4 7 -10 32 -11 42 0
4 3 2 9 -4 12 -5 4 -12 2 -16 -4z"/>
<path d="M3306 3383 c-4 -5 12 -20 67 -62 32 -25 18 -5 -23 31 -21 20 -41 33
-44 31z"/>
<path d="M3652 3369 c-18 -12 -31 -24 -28 -26 5 -5 66 35 66 43 0 6 -3 5 -38
-17z"/>
<path d="M2366 3205 c-3 -8 -1 -15 4 -15 6 0 10 7 10 15 0 8 -2 15 -4 15 -2 0
-6 -7 -10 -15z"/>
<path d="M3697 3209 c7 -7 15 -10 18 -7 3 3 -2 9 -12 12 -14 6 -15 5 -6 -5z"/>
<path d="M2625 4491 c-3 -5 -2 -12 3 -15 5 -3 9 1 9 9 0 17 -3 19 -12 6z"/>
<path d="M2733 4479 c-2 -23 3 -25 10 -4 4 8 3 16 -1 19 -4 3 -9 -4 -9 -15z"/>
<path d="M2696 4369 c21 -23 23 -23 20 -2 -2 9 -11 17 -20 19 -17 2 -17 2 0
-17z"/>
<path d="M3653 4235 c0 -7 6 -11 14 -8 7 3 13 6 13 8 0 2 -6 5 -13 8 -8 3 -14
-1 -14 -8z"/>
<path d="M3686 4037 c3 -10 9 -15 12 -12 3 3 0 11 -7 18 -10 9 -11 8 -5 -6z"/>
<path d="M3057 3897 c-3 -8 1 -14 9 -14 16 0 19 13 5 21 -5 3 -11 0 -14 -7z"/>
<path d="M3096 3661 c-4 -5 -2 -12 3 -15 5 -4 12 -2 15 3 4 5 2 12 -3 15 -5 4
-12 2 -15 -3z"/>
<path d="M3206 3607 c3 -10 9 -15 12 -12 3 3 0 11 -7 18 -10 9 -11 8 -5 -6z"/>
<path d="M3417 3381 c-10 -14 -10 -14 5 -3 13 10 17 10 20 0 3 -8 6 -7 10 3 8
21 -19 20 -35 0z"/>
<path d="M3106 3347 c3 -10 9 -15 12 -12 3 3 0 11 -7 18 -10 9 -11 8 -5 -6z"/>
<path d="M2202 4285 c0 -16 2 -22 5 -12 2 9 2 23 0 30 -3 6 -5 -1 -5 -18z"/>
<path d="M3738 4353 c7 -3 16 -2 19 1 4 3 -2 6 -13 5 -11 0 -14 -3 -6 -6z"/>
<path d="M2645 4261 c-3 -6 3 -9 14 -8 11 0 17 5 15 9 -7 11 -22 10 -29 -1z"/>
<path d="M2345 4151 c-3 -5 -2 -12 3 -15 5 -3 9 1 9 9 0 17 -3 19 -12 6z"/>
<path d="M2460 4078 c0 -3 6 -11 14 -17 10 -9 17 -7 27 6 12 16 12 17 -2 6
-12 -10 -18 -10 -27 -1 -7 7 -12 9 -12 6z"/>
<path d="M2420 4066 c0 -2 8 -10 18 -17 15 -13 16 -12 3 4 -13 16 -21 21 -21
13z"/>
<path d="M3445 4340 c-3 -5 -12 -7 -20 -3 -8 3 -15 3 -15 0 0 -13 30 -14 40
-1 7 8 10 14 7 14 -3 0 -8 -4 -12 -10z"/>
<path d="M3520 4256 c0 -2 8 -10 18 -17 15 -13 16 -12 3 4 -13 16 -21 21 -21
13z"/>
<path d="M2915 4221 c-3 -5 -2 -12 3 -15 5 -3 9 1 9 9 0 17 -3 19 -12 6z"/>
<path d="M3314 4038 l-19 -23 23 19 c12 11 22 21 22 23 0 8 -8 2 -26 -19z"/>
<path d="M3265 3981 c-3 -5 0 -13 6 -17 7 -4 9 -3 5 4 -3 5 0 13 6 15 9 4 10
6 1 6 -6 1 -14 -3 -18 -8z"/>
<path d="M2320 4021 c0 -6 4 -13 10 -16 6 -3 7 1 4 9 -7 18 -14 21 -14 7z"/>
<path d="M2344 3902 c3 -5 1 -12 -6 -14 -8 -3 -9 -6 -1 -11 6 -4 13 0 17 8 3
8 0 17 -6 21 -6 4 -8 3 -4 -4z"/>
<path d="M2703 3975 c0 -8 4 -12 9 -9 5 3 6 10 3 15 -9 13 -12 11 -12 -6z"/>
<path d="M3174 3865 c0 -19 3 -22 13 -13 10 8 10 14 2 24 -15 18 -15 18 -15
-11z"/>
<path d="M3125 3850 c-2 -3 5 -7 16 -7 10 -1 19 2 19 6 0 9 -29 10 -35 1z"/>
<path d="M3026 3707 c5 -14 2 -16 -12 -11 -16 5 -16 4 -4 -5 20 -14 39 4 21
22 -10 10 -11 9 -5 -6z"/>
<path d="M2946 3652 c-3 -5 1 -9 9 -9 8 0 12 4 9 9 -3 4 -7 8 -9 8 -2 0 -6 -4
-9 -8z"/>
<path d="M2894 3568 l-19 -23 23 19 c23 20 31 10 10 -14 -7 -8 -4 -7 7 2 13
12 16 21 9 28 -7 7 -17 3 -30 -12z"/>
<path d="M2856 3518 c3 -5 10 -6 15 -3 13 9 11 12 -6 12 -8 0 -12 -4 -9 -9z"/>
<path d="M2846 3497 c3 -10 9 -15 12 -12 3 3 0 11 -7 18 -10 9 -11 8 -5 -6z"/>
<path d="M3730 3860 c-12 -7 -10 -9 7 -7 12 0 19 5 17 9 -6 10 -6 10 -24 -2z"/>
<path d="M3634 3778 c10 -6 22 -6 26 -2 5 5 -3 10 -18 11 -22 1 -24 0 -8 -9z"/>
<path d="M3510 3829 c0 -5 -4 -8 -9 -4 -5 3 -12 1 -15 -4 -8 -13 22 -7 36 7 9
9 9 12 0 12 -7 0 -12 -5 -12 -11z"/>
<path d="M3477 3786 c-3 -8 -2 -18 3 -21 13 -8 20 9 11 24 -6 10 -10 9 -14 -3z"/>
<path d="M2807 3653 c3 -7 6 -13 8 -13 2 0 5 6 8 13 3 8 -1 14 -8 14 -7 0 -11
-6 -8 -14z"/>
<path d="M2636 3592 c-3 -5 1 -9 9 -9 8 0 15 4 15 9 0 4 -4 8 -9 8 -6 0 -12
-4 -15 -8z"/>
<path d="M3340 3506 c0 -2 8 -10 18 -17 15 -13 16 -12 3 4 -13 16 -21 21 -21
13z"/>
<path d="M3680 3590 c-12 -7 -10 -9 7 -7 12 0 19 5 17 9 -6 10 -6 10 -24 -2z"/>
<path d="M3670 3530 c0 -5 5 -10 11 -10 5 0 7 5 4 10 -3 6 -8 10 -11 10 -2 0
-4 -4 -4 -10z"/>
<path d="M2961 3313 c-18 -22 -31 -49 -31 -65 0 -28 1 -28 65 -28 62 0 65 1
65 24 0 18 -34 73 -65 104 -1 2 -17 -14 -34 -35z m38 -25 c11 -11 12 -10 6 2
-6 12 -5 13 5 3 27 -25 20 -43 -15 -43 -37 0 -56 16 -31 26 9 3 13 10 10 15
-8 13 10 11 25 -3z"/>
<path d="M2557 3179 c7 -7 15 -10 18 -7 3 3 -2 9 -12 12 -14 6 -15 5 -6 -5z"/>
<path d="M3604 3069 c-3 -6 -2 -15 3 -20 5 -5 9 -1 9 11 0 23 -2 24 -12 9z"/>
<path d="M3525 3029 c-11 -16 -1 -19 13 -3 7 8 8 14 3 14 -5 0 -13 -5 -16 -11z"/>
<path d="M3289 2797 c-1 -4 -6 -47 -5 -47 1 0 9 9 18 19 14 16 14 20 2 25 -8
3 -14 4 -15 3z"/>
<path d="M2887 2545 c3 -8 9 -12 14 -9 12 7 11 11 -5 17 -10 4 -13 1 -9 -8z"/>
<path d="M2255 5020 c-3 -6 1 -7 9 -4 18 7 21 14 7 14 -6 0 -13 -4 -16 -10z"/>
<path d="M2410 5020 c-9 -6 -10 -10 -3 -10 6 0 15 5 18 10 8 12 4 12 -15 0z"/>
<path d="M3560 5026 c0 -2 8 -10 18 -17 15 -13 16 -12 3 4 -13 16 -21 21 -21
13z"/>
<path d="M2375 4990 c4 -6 11 -8 16 -5 14 9 11 15 -7 15 -8 0 -12 -5 -9 -10z"/>
<path d="M3594 4988 c-4 -7 -4 -10 1 -6 4 4 16 3 26 -3 11 -5 19 -7 19 -5 0 3
-9 10 -19 16 -15 7 -22 7 -27 -2z"/>
<path d="M2246 4973 c-6 -14 -5 -15 5 -6 7 7 10 15 7 18 -3 3 -9 -2 -12 -12z"/>
<path d="M1930 4610 c0 -5 7 -7 15 -4 8 4 15 8 15 10 0 2 -7 4 -15 4 -8 0 -15
-4 -15 -10z"/>
<path d="M3944 4600 c0 -13 4 -16 10 -10 7 7 7 13 0 20 -6 6 -10 3 -10 -10z"/>
<path d="M1967 4497 c-3 -8 1 -14 8 -14 7 0 11 6 8 14 -3 7 -6 13 -8 13 -2 0
-5 -6 -8 -13z"/>
<path d="M4121 4384 c0 -11 3 -14 6 -6 3 7 2 16 -1 19 -3 4 -6 -2 -5 -13z"/>
<path d="M1890 4220 c6 -11 13 -20 16 -20 2 0 0 9 -6 20 -6 11 -13 20 -16 20
-2 0 0 -9 6 -20z"/>
<path d="M3964 3861 c4 -5 0 -11 -6 -14 -7 -3 -3 -4 9 -4 17 1 19 4 11 14 -12
15 -22 18 -14 4z"/>
<path d="M3900 3301 c0 -6 4 -13 10 -16 6 -3 7 1 4 9 -7 18 -14 21 -14 7z"/>
<path d="M2100 3226 c0 -2 8 -10 18 -17 15 -13 16 -12 3 4 -13 16 -21 21 -21
13z"/>
<path d="M2496 2818 c3 -4 9 -8 15 -8 5 0 9 4 9 8 0 5 -7 9 -15 9 -8 0 -12 -4
-9 -9z"/>
<path d="M3319 2673 c-13 -16 -12 -17 4 -4 16 13 21 21 13 21 -2 0 -10 -8 -17
-17z"/>
<path d="M2649 2653 c-13 -16 -12 -17 4 -4 16 13 21 21 13 21 -2 0 -10 -8 -17
-17z"/>
<path d="M3245 2610 c-3 -5 -1 -10 4 -10 6 0 11 5 11 10 0 6 -2 10 -4 10 -3 0
-8 -4 -11 -10z"/>
<path d="M2726 2601 c-4 -5 -2 -12 3 -15 5 -4 12 -2 15 3 4 5 2 12 -3 15 -5 4
-12 2 -15 -3z"/>
<path d="M2190 2120 c-8 -5 -10 -10 -5 -10 12 0 -45 -31 -63 -34 -7 -1 -18 -8
-25 -16 -10 -12 -9 -12 6 -1 20 16 20 16 8 -27 -10 -34 3 -82 21 -82 5 0 7 -4
4 -9 -3 -5 8 -15 25 -24 19 -9 27 -17 20 -22 -7 -4 -19 -1 -27 6 -12 10 -13 9
-8 -5 4 -9 0 -18 -10 -22 -13 -5 -15 -37 -15 -240 0 -152 3 -234 10 -234 6 0
8 -4 4 -9 -7 -12 18 -19 81 -22 40 -2 57 2 79 19 15 12 23 22 16 22 -6 0 -11
5 -11 11 0 5 5 7 11 4 6 -4 6 1 -2 12 -9 15 -9 40 -2 99 6 49 6 87 1 100 -6
12 -6 40 -1 70 5 27 6 60 2 74 -12 43 -10 82 4 74 6 -4 -1 5 -16 19 -15 15
-36 27 -45 28 -14 0 -14 2 -2 6 8 4 20 12 27 19 7 7 18 14 25 16 9 3 13 24 13
60 0 48 -3 58 -30 81 -18 16 -42 27 -60 27 -23 0 -27 3 -15 10 8 5 11 10 5 10
-5 0 -17 -5 -25 -10z m85 -60 c45 -50 10 -130 -57 -130 -42 0 -64 15 -77 51
-11 31 -5 53 22 87 16 20 91 15 112 -8z m5 -425 l0 -235 -65 0 -65 0 0 235 0
235 65 0 65 0 0 -235z"/>
<path d="M1880 2084 c-34 -24 -45 -62 -25 -94 5 -9 4 -11 -3 -6 -15 9 -3 -24
15 -42 7 -8 11 -18 8 -22 -3 -5 3 -7 15 -5 28 5 34 -11 7 -20 -12 -4 -25 -7
-29 -6 -5 1 -7 -2 -7 -6 4 -22 -2 -33 -13 -27 -10 6 -10 4 0 -8 9 -12 12 -72
12 -242 -1 -248 -1 -248 -63 -241 -18 2 -34 -4 -47 -18 -22 -22 -27 -42 -9
-31 6 3 3 -5 -6 -19 -9 -15 -14 -31 -10 -36 4 -7 -1 -9 -12 -5 -10 3 -7 -2 7
-10 14 -8 21 -16 15 -16 -23 -1 80 -40 107 -40 34 0 128 38 128 52 0 5 5 6 10
3 6 -4 7 -12 4 -18 -4 -7 -3 -8 2 -4 5 5 9 14 10 20 2 22 16 57 23 57 4 0 8
10 10 23 6 39 10 501 5 524 -2 12 -14 32 -26 43 -14 13 -17 20 -8 20 7 0 11 3
7 6 -3 3 5 16 18 28 12 12 25 33 27 46 2 15 9 25 19 24 9 -1 16 5 16 12 0 9
-7 10 -24 3 -16 -6 -22 -5 -18 1 7 11 -49 69 -68 72 -48 6 -67 2 -97 -18z
m129 -30 c28 -35 26 -69 -4 -99 -50 -51 -135 -18 -135 52 0 46 30 73 79 73 31
0 44 -6 60 -26z m-1 -458 c-3 -259 -4 -276 -24 -302 -37 -50 -70 -68 -127 -68
-28 -1 -66 5 -84 12 l-32 14 19 46 c11 29 24 46 32 43 39 -11 55 -11 73 3 19
14 20 26 20 270 l0 256 63 0 63 0 -3 -274z"/>
<path d="M1364 2068 c-3 -4 3 -5 13 -1 15 5 14 2 -4 -15 -11 -12 -27 -38 -33
-59 -7 -21 -15 -42 -19 -48 -3 -5 -6 -16 -8 -24 -1 -8 -7 -17 -13 -21 -6 -4
-8 -15 -4 -25 6 -14 4 -16 -6 -10 -9 6 -12 4 -8 -6 6 -16 -35 -112 -44 -103
-4 3 -4 -4 -1 -17 4 -15 3 -20 -5 -15 -8 5 -10 2 -6 -9 4 -8 0 -23 -7 -31 -8
-9 -14 -22 -14 -28 -1 -28 -28 -86 -37 -80 -7 4 -8 2 -4 -5 10 -15 -15 -82
-27 -74 -6 3 -7 1 -3 -5 4 -6 0 -28 -9 -49 -10 -24 -12 -39 -5 -41 5 -2 8 -8
5 -13 -11 -18 109 -31 143 -16 12 6 22 15 22 22 0 6 8 20 18 31 9 11 18 26 20
34 7 33 27 40 134 41 113 1 128 -2 128 -29 0 -9 9 -32 20 -50 17 -28 19 -37 8
-50 -10 -14 -10 -15 2 -4 16 14 34 16 26 3 -3 -4 7 -7 22 -5 15 2 48 4 74 5
48 3 58 11 63 52 1 11 -4 21 -12 24 -8 3 -11 13 -8 23 3 10 1 21 -5 25 -6 3
-7 11 -4 17 4 6 2 8 -3 5 -6 -4 -14 3 -18 16 -14 42 -16 52 -17 64 -1 7 -5 10
-10 7 -4 -3 -8 0 -8 6 0 7 -14 46 -31 88 -16 42 -28 85 -25 95 2 11 2 16 -1
13 -8 -7 -33 13 -33 26 0 6 8 4 18 -3 14 -11 15 -11 5 0 -6 7 -10 19 -9 25 2
6 1 8 -1 4 -8 -14 -23 -9 -23 7 0 8 -13 44 -30 80 -17 37 -27 72 -23 82 3 10
2 14 -2 10 -5 -4 -14 2 -20 13 -10 19 -21 21 -94 23 -46 1 -85 -1 -87 -5z
m201 -130 c119 -291 215 -531 215 -534 0 -2 -30 -4 -68 -4 l-67 0 -24 65 -23
66 -141 -3 -141 -3 -24 -62 -23 -61 -65 -4 c-38 -2 -64 1 -64 7 0 5 53 145
119 310 65 165 121 307 124 315 3 12 20 15 72 13 l68 -1 42 -104z"/>
<path d="M1410 1777 c-25 -67 -46 -126 -48 -132 -2 -6 30 -9 93 -7 52 2 95 6
95 10 0 7 -89 244 -93 248 -1 1 -22 -52 -47 -119z m70 -22 c39 -88 36 -96 -38
-93 -31 1 -33 3 -26 27 4 14 6 34 6 44 0 9 3 15 8 12 4 -3 6 5 2 17 -5 20 -3
21 9 11 13 -11 15 -8 12 20 -2 17 0 25 3 17 3 -8 14 -33 24 -55z"/>
<path d="M3332 2066 c-24 -13 -24 -13 -28 -43 -5 -37 -4 -515 2 -578 2 -27 10
-55 18 -60 19 -14 122 -11 141 5 13 10 15 38 13 156 -3 120 -1 143 11 139 10
-4 11 -2 4 7 -6 7 -13 24 -16 38 l-6 25 20 -25 c10 -14 24 -31 30 -38 5 -7 7
-17 3 -24 -4 -7 -3 -8 4 -4 8 4 10 -3 7 -24 -2 -17 0 -28 5 -25 5 3 7 12 3 20
-3 8 0 15 6 15 6 0 11 -3 11 -8 0 -4 11 -20 26 -35 14 -15 22 -32 19 -37 -4
-6 1 -7 12 -3 16 6 16 5 4 -10 -12 -15 -12 -17 2 -11 10 3 20 -3 27 -18 7 -13
21 -33 32 -45 11 -12 17 -26 13 -33 -3 -6 -3 -9 2 -8 5 2 24 -14 43 -35 31
-36 37 -38 76 -34 24 2 48 -1 54 -7 7 -7 10 -6 10 2 0 7 7 12 16 12 8 0 12 5
9 10 -3 6 -2 10 4 10 5 0 9 52 9 129 0 71 3 144 7 163 4 19 3 28 -2 21 -5 -7
-8 62 -6 162 3 172 3 174 -19 187 -28 15 -61 17 -70 3 -5 -7 -8 -7 -8 1 0 14
-56 6 -69 -10 -5 -6 -11 -84 -13 -173 -2 -89 0 -156 4 -150 4 7 8 8 8 2 0 -5
-4 -16 -9 -24 -7 -11 -11 -9 -20 8 -7 12 -9 26 -6 31 3 5 0 8 -7 5 -7 -2 -26
16 -43 43 -16 26 -43 63 -60 82 -17 19 -36 46 -43 60 -21 42 -59 90 -66 82 -4
-3 -4 2 0 11 3 10 3 17 -2 16 -20 -3 -34 2 -31 12 3 13 -108 18 -131 5z m234
-173 c66 -87 137 -183 159 -214 l40 -56 0 211 0 211 63 3 62 3 0 -328 0 -328
-65 3 c-36 2 -65 8 -65 12 0 5 -33 51 -73 102 -40 51 -108 141 -151 201 -43
59 -79 107 -81 107 -2 0 -3 -94 -2 -210 1 -115 -2 -210 -6 -210 -4 0 -33 0
-64 0 l-58 0 2 322 c2 178 3 324 3 326 0 1 26 2 59 2 l59 0 118 -157z"/>
<path d="M3480 1936 c0 -2 7 -7 16 -10 8 -3 12 -2 9 4 -6 10 -25 14 -25 6z"/>
<path d="M3581 1706 c-9 -11 -9 -16 1 -22 7 -4 10 -4 6 1 -4 4 -3 14 3 22 6 7
9 13 6 13 -2 0 -10 -6 -16 -14z"/>
<path d="M3640 1710 c0 -5 5 -10 11 -10 5 0 7 5 4 10 -3 6 -8 10 -11 10 -2 0
-4 -4 -4 -10z"/>
<path d="M3659 1683 c-13 -16 -12 -17 4 -4 16 13 21 21 13 21 -2 0 -10 -8 -17
-17z"/>
<path d="M4542 1992 c-5 -16 -8 -41 -7 -56 3 -24 1 -27 -18 -22 -21 5 -21 5
-3 -9 19 -14 19 -15 -6 -15 -29 0 -53 -23 -45 -44 3 -8 -1 -17 -9 -20 -8 -3
-14 -10 -14 -15 0 -6 7 -8 16 -4 13 5 15 2 10 -14 -5 -15 2 -24 31 -39 l38
-20 1 -123 c1 -118 2 -124 30 -163 16 -23 41 -50 55 -60 51 -38 223 -15 215
29 -2 10 -7 37 -11 60 -7 45 -25 58 -67 48 -43 -10 -53 8 -56 98 -5 104 5 127
53 127 49 0 76 29 70 76 -6 49 -21 64 -64 64 -20 0 -43 5 -51 11 -12 9 -12 10
4 5 16 -6 17 -4 6 9 -7 8 -10 26 -8 40 3 14 2 25 -2 25 -4 0 -10 9 -13 20 -4
18 -14 20 -75 20 -68 0 -70 -1 -80 -28z m138 -57 l0 -65 60 0 60 0 0 -50 0
-50 -60 0 -60 0 0 -119 c0 -142 7 -156 76 -148 41 4 43 3 49 -27 4 -17 9 -38
11 -47 10 -37 -117 -52 -181 -22 -60 28 -75 75 -75 231 l0 132 -35 0 -35 0 0
50 0 50 35 0 35 0 0 65 0 65 60 0 60 0 0 -65z"/>
<path d="M4636 1494 c-4 -9 -4 -19 -1 -22 3 -3 5 0 5 7 0 7 4 9 10 6 6 -3 7 1
4 9 -8 20 -10 20 -18 0z"/>
<path d="M4665 1460 c-3 -6 1 -7 9 -4 18 7 21 14 7 14 -6 0 -13 -4 -16 -10z"/>
<path d="M2065 1989 c-4 -6 -5 -12 -2 -15 2 -3 7 2 10 11 7 17 1 20 -8 4z"/>
<path d="M1311 1974 c0 -11 3 -14 6 -6 3 7 2 16 -1 19 -3 4 -6 -2 -5 -13z"/>
<path d="M2080 1976 c0 -2 8 -10 18 -17 15 -13 16 -12 3 4 -13 16 -21 21 -21
13z"/>
<path d="M2035 1920 c-3 -6 1 -7 9 -4 18 7 21 14 7 14 -6 0 -13 -4 -16 -10z"/>
<path d="M2435 1909 c-4 -6 -14 -8 -22 -5 -8 3 -12 2 -9 -3 3 -5 -1 -14 -9
-21 -12 -10 -15 -50 -15 -236 0 -267 3 -279 70 -275 41 2 44 2 72 -2 15 -2 25
0 22 4 -3 5 2 19 10 31 11 17 16 60 18 162 l3 140 34 20 c24 14 32 15 26 5 -8
-12 -6 -12 8 0 9 7 24 10 33 7 11 -4 26 2 41 16 31 29 51 31 64 5 6 -12 21
-33 33 -47 14 -16 15 -20 3 -11 -15 12 -17 12 -11 -3 4 -9 1 -16 -6 -16 -6 0
-23 -9 -37 -20 -14 -11 -30 -17 -36 -13 -6 3 -7 1 -3 -6 4 -6 12 -8 18 -5 6 4
8 1 6 -7 -3 -8 -10 -13 -15 -12 -5 1 -9 -35 -9 -82 0 -46 4 -82 8 -79 4 3 8
-2 8 -11 0 -10 5 -13 13 -9 8 5 8 2 -2 -9 -11 -13 -11 -20 -1 -32 6 -8 9 -18
6 -24 -3 -5 1 -8 9 -7 8 1 16 4 17 7 2 2 1 3 -1 2 -5 -4 -30 30 -31 41 0 5 7
3 15 -4 8 -7 15 -9 15 -4 0 11 25 -14 26 -26 1 -6 2 -12 3 -15 0 -3 11 -1 22
6 14 7 19 7 15 0 -5 -7 18 -9 71 -6 104 5 106 6 120 24 11 14 13 14 14 1 1 -8
1 -17 1 -20 0 -3 13 -5 29 -6 16 -1 26 3 22 8 -3 6 2 6 13 0 25 -13 69 -4 89
18 15 16 17 42 14 194 -3 123 -8 179 -16 188 -7 6 -13 22 -13 35 0 16 -15 31
-58 56 -31 18 -64 34 -72 35 -66 8 -153 5 -190 -6 -25 -8 -50 -14 -57 -15 -7
0 -29 -18 -50 -40 -21 -22 -31 -37 -22 -34 9 3 16 0 16 -9 0 -8 -3 -12 -5 -9
-3 3 -11 0 -17 -5 -9 -8 -11 -3 -8 17 8 48 3 78 -12 89 -18 14 -20 28 -2 18 6
-4 8 -3 4 1 -12 14 -38 15 -30 2 4 -7 -1 -6 -10 2 -11 9 -17 10 -17 2 0 -6 -5
-11 -11 -11 -5 0 -8 4 -5 8 3 5 -1 9 -9 9 -8 0 -15 -3 -15 -7 0 -8 -55 -40
-70 -40 -6 0 -8 5 -5 10 4 6 10 8 14 6 4 -3 13 0 21 6 12 8 12 9 -3 4 -10 -3
-20 0 -23 8 -3 7 -12 13 -21 13 -14 0 -14 -2 1 -13 15 -11 14 -12 -9 -10 -17
1 -24 5 -20 15 5 12 3 12 -11 0 -21 -18 -56 -20 -50 -2 6 16 0 17 -9 2z m265
-89 l0 -60 -40 0 c-21 0 -51 -5 -65 -12 -46 -21 -55 -53 -55 -208 l0 -140 -65
0 -65 0 0 235 0 235 60 0 60 0 0 -36 0 -37 22 28 c25 33 71 54 116 55 l32 0 0
-60z m361 48 c54 -18 90 -48 110 -92 16 -35 19 -67 19 -208 l0 -168 -60 0
c-58 0 -60 1 -60 27 l0 26 -22 -20 c-38 -34 -64 -43 -128 -43 -136 0 -212 102
-157 210 37 74 145 108 253 81 26 -7 49 -10 51 -7 3 3 0 21 -7 41 -22 67 -124
84 -206 36 l-33 -20 -25 45 -25 44 42 22 c23 12 56 25 72 29 47 11 139 10 176
-3z m-116 -128 c17 -7 24 -7 20 0 -3 6 1 10 9 10 8 0 18 -5 21 -10 4 -6 10 -8
15 -5 5 3 11 1 15 -5 7 -12 8 -12 -80 -14 -38 0 -75 -4 -81 -8 -6 -4 -11 -1
-11 7 0 8 4 12 9 9 4 -3 8 -1 8 5 0 6 7 8 15 5 8 -4 15 -1 15 5 0 14 11 14 45
1z"/>
<path d="M2910 1593 c-27 -14 -36 -25 -38 -50 -5 -45 31 -67 99 -61 58 6 85
27 95 75 7 35 3 37 -76 48 -33 4 -54 1 -80 -12z m114 -22 c14 -5 16 -10 8 -15
-7 -4 -10 -11 -7 -16 5 -9 -11 -23 -30 -26 -42 -7 -53 -7 -72 -1 -33 12 -36
35 -5 51 29 16 75 19 106 7z"/>
<path d="M2949 1558 c-5 -19 -8 -50 -4 -46 7 7 15 48 9 48 -2 0 -4 -1 -5 -2z"/>
<path d="M2110 1901 c0 -6 4 -13 10 -16 6 -3 7 1 4 9 -7 18 -14 21 -14 7z"/>
<path d="M3100 1900 c-9 -6 -10 -10 -3 -10 6 0 15 5 18 10 8 12 4 12 -15 0z"/>
<path d="M2074 1885 c-4 -10 -14 -14 -28 -10 -11 2 -15 2 -8 -1 6 -3 10 -9 8
-13 -8 -12 27 -6 49 8 17 11 18 12 1 7 -13 -5 -17 -2 -12 9 3 8 3 15 0 15 -2
0 -7 -7 -10 -15z"/>
<path d="M4145 1891 c-3 -5 -19 -12 -35 -16 -17 -4 -45 -24 -66 -48 -19 -23
-32 -33 -28 -22 4 11 4 17 0 13 -4 -3 -8 -13 -10 -21 -1 -8 -7 -21 -14 -29 -6
-8 -19 -34 -27 -58 -16 -47 -19 -62 -7 -43 4 7 9 -14 10 -45 5 -87 6 -100 13
-96 4 2 10 -7 13 -20 12 -50 106 -126 154 -126 17 0 33 -4 37 -9 3 -5 31 -8
63 -5 31 2 71 5 89 6 18 1 30 5 27 10 -3 4 0 8 7 8 7 0 28 12 48 27 20 16 40
27 45 25 5 -2 4 4 -3 12 -12 14 -17 13 -45 -9 -53 -40 -100 -55 -176 -55 -82
0 -130 17 -179 63 -47 45 -71 101 -71 171 0 109 41 186 122 227 161 82 339
-20 342 -196 l1 -60 -167 -3 c-179 -3 -184 -4 -152 -51 38 -53 123 -65 199
-26 27 13 50 23 50 22 19 -33 47 -64 59 -64 22 0 27 24 8 39 -11 9 -14 10 -8
1 4 -7 3 -13 -3 -13 -5 0 -12 8 -16 18 -7 23 -51 46 -61 31 -4 -6 -11 -6 -20
2 -12 10 -13 9 -9 -4 4 -8 1 -18 -6 -23 -8 -5 -10 -3 -4 7 7 12 6 12 -7 1 -27
-22 -109 -21 -140 2 -16 11 -28 23 -28 28 0 6 106 11 175 8 65 -3 118 1 135
10 31 17 26 109 -11 186 -19 43 -24 61 -16 67 8 5 7 7 -3 6 -8 -1 -23 1 -33 6
-15 6 -15 10 -5 24 12 14 11 15 -5 2 -12 -10 -21 -11 -25 -4 -19 28 -201 48
-217 24z"/>
<path d="M4330 1800 c-6 -11 -9 -20 -8 -21 2 0 13 -2 26 -3 20 -2 21 -1 7 14
-8 9 -12 20 -8 23 3 4 3 7 0 7 -3 0 -11 -9 -17 -20z"/>
<path d="M4170 1766 c-13 -8 -32 -29 -42 -47 l-18 -34 111 -3 c62 -1 114 0
117 2 9 9 -34 71 -59 83 -31 16 -78 16 -109 -1z m77 -20 c-4 -10 -1 -13 7 -10
7 3 19 -2 26 -10 7 -9 17 -13 24 -9 6 4 5 -1 -3 -10 -13 -16 -14 -16 -28 0 -8
10 -12 12 -8 6 7 -14 8 -14 -67 -15 -63 -1 -70 16 -18 42 44 23 74 25 67 6z"/>
<path d="M2613 1698 c0 -13 1 -17 4 -10 3 6 10 9 16 5 7 -4 6 1 -2 10 -17 21
-17 21 -18 -5z"/>
<path d="M4041 1544 c0 -11 3 -14 6 -6 3 7 2 16 -1 19 -3 4 -6 -2 -5 -13z"/>
<path d="M4325 1480 c-3 -6 1 -7 9 -4 18 7 21 14 7 14 -6 0 -13 -4 -16 -10z"/>
<path d="M4370 1476 c0 -2 7 -7 16 -10 8 -3 12 -2 9 4 -6 10 -25 14 -25 6z"/>
<path d="M3480 1369 c0 -5 5 -7 10 -4 6 3 10 8 10 11 0 2 -4 4 -10 4 -5 0 -10
-5 -10 -11z"/>
<path d="M1810 1109 c-12 -9 -12 -10 3 -5 9 3 17 1 17 -4 0 -6 -8 -10 -17 -10
-9 0 -24 -7 -34 -16 -13 -12 -19 -12 -25 -3 -5 8 -3 10 6 4 8 -5 11 -4 6 3 -4
6 -13 9 -20 6 -7 -3 -16 2 -19 10 -4 9 -12 16 -19 16 -10 0 -10 -2 1 -9 7 -5
9 -11 4 -14 -5 -3 -15 -2 -23 4 -18 11 -33 12 -27 2 3 -5 -1 -14 -9 -21 -14
-12 -19 -8 -14 13 1 5 -2 6 -6 2 -5 -4 -8 -20 -9 -34 0 -15 -5 -28 -11 -30 -7
-2 -10 10 -9 31 1 19 -2 33 -7 30 -4 -3 -8 0 -8 7 0 7 -4 8 -12 2 -7 -5 -23
-8 -35 -7 -17 1 -20 -2 -14 -15 5 -9 6 -22 3 -30 -3 -8 0 -11 7 -7 16 10 14 0
-5 -18 -8 -9 -11 -16 -5 -16 6 0 11 -5 11 -11 0 -5 -6 -7 -12 -3 -7 4 -4 -2 8
-13 31 -31 61 -37 89 -19 14 9 25 12 25 7 0 -5 12 -12 27 -16 19 -4 34 0 55
15 l28 20 17 -20 c36 -41 95 -12 124 61 9 24 22 44 29 44 7 0 20 -21 30 -47
20 -52 19 -54 -10 -36 -15 10 -24 9 -44 -2 -14 -7 -26 -17 -26 -22 0 -11 28
-10 35 2 4 7 13 6 26 -1 11 -6 27 -8 36 -5 8 3 23 1 35 -5 15 -8 29 -7 59 5
22 9 45 13 51 10 7 -5 8 -2 4 5 -5 7 -14 10 -21 7 -9 -3 -12 5 -10 31 4 34 3
34 -16 17 -24 -21 -28 -17 -31 28 -3 31 -6 35 -27 33 -14 -1 -29 -9 -35 -17
-9 -12 -14 -11 -28 3 -9 10 -15 19 -12 21 2 2 -7 4 -21 4 -13 0 -22 -2 -20 -5
1 -4 -3 -12 -11 -18 -10 -10 -15 -10 -21 0 -19 29 -48 46 -63 36z m-230 -79
c0 -36 3 -40 25 -40 14 0 25 -4 25 -10 0 -5 -16 -10 -35 -10 l-35 0 0 50 c0
28 5 50 10 50 6 0 10 -18 10 -40z m156 15 c15 -23 15 -27 0 -50 -10 -15 -26
-25 -41 -25 -15 0 -31 10 -41 25 -15 23 -15 27 0 50 10 15 26 25 41 25 15 0
31 -10 41 -25z m108 19 c27 -10 18 -22 -16 -20 -29 1 -33 -2 -33 -24 0 -22 4
-25 33 -23 39 1 39 -20 0 -25 -48 -6 -76 49 -42 82 16 17 33 20 58 10z m184
-34 c-3 -36 -1 -40 19 -40 13 0 23 -4 23 -10 0 -5 -15 -10 -33 -10 -32 0 -32
1 -34 50 -1 39 2 50 14 50 12 0 14 -9 11 -40z m62 -26 c0 -8 -5 -12 -10 -9 -6
4 -8 11 -5 16 9 14 15 11 15 -7z"/>
<path d="M1672 1033 c-13 -26 -4 -43 23 -43 13 0 25 6 28 13 6 17 -11 47 -28
47 -8 0 -18 -8 -23 -17z"/>
<path d="M2430 1100 c6 -11 15 -20 20 -20 6 0 2 9 -7 20 -10 11 -19 20 -21 20
-1 0 2 -9 8 -20z"/>
<path d="M2494 1109 c-3 -5 -15 -7 -27 -3 -22 6 -22 6 -2 -9 19 -15 19 -16 2
-22 -9 -4 -24 -1 -33 6 -19 15 -73 19 -81 6 -3 -6 -1 -7 5 -3 18 11 14 0 -5
-15 -11 -10 -14 -10 -9 -1 4 7 2 12 -5 12 -8 0 -7 5 2 18 13 15 12 16 -3 4 -9
-8 -25 -11 -35 -8 -10 3 -31 -1 -47 -9 -37 -19 -41 -19 -25 3 10 13 10 15 0 5
-9 -7 -23 -8 -43 -2 -25 7 -28 6 -18 -6 9 -11 9 -15 1 -15 -6 0 -11 -9 -11
-21 0 -13 -4 -18 -12 -13 -7 4 -8 3 -4 -4 4 -6 2 -20 -3 -30 -7 -14 -6 -25 5
-40 18 -26 37 -28 59 -6 14 15 19 15 51 -1 33 -16 37 -15 69 4 21 12 34 15 32
8 -3 -16 66 -21 93 -7 11 6 20 7 20 2 0 -18 44 -21 67 -6 13 8 23 10 23 4 0
-5 8 -10 18 -10 20 1 68 26 65 34 -2 3 -1 6 2 6 28 0 29 -1 16 -9 -22 -14 16
-29 74 -30 28 0 64 -1 80 -1 17 -1 50 1 75 3 25 3 49 2 55 -1 24 -15 107 -11
130 6 24 17 35 40 13 26 -8 -5 -9 -2 -5 9 3 9 3 16 -1 16 -19 -3 -30 2 -36 17
-3 8 -2 12 4 9 15 -9 -1 28 -17 42 -8 6 -22 9 -31 5 -14 -5 -15 -4 -2 10 8 9
18 14 23 11 4 -2 7 1 7 6 0 17 -15 13 -35 -9 -10 -11 -14 -20 -9 -20 5 0 2 -4
-6 -10 -18 -11 -41 6 -34 25 3 7 0 16 -7 21 -7 4 -10 3 -5 -4 3 -6 -3 -13 -14
-17 -11 -3 -20 -13 -20 -21 0 -18 -5 -18 -29 2 -24 21 -88 26 -95 7 -3 -8 -10
-11 -16 -8 -6 4 -8 10 -6 14 5 8 -64 5 -72 -4 -3 -2 -12 1 -21 8 -14 11 -15
10 -1 -7 13 -18 13 -19 0 -14 -11 4 -15 -1 -15 -18 1 -13 5 -27 10 -31 4 -5 5
-2 0 6 -5 9 -4 12 3 7 6 -4 9 -13 6 -21 -4 -8 -10 -13 -14 -10 -5 3 -11 1 -15
-5 -3 -5 -11 -10 -16 -10 -6 0 -7 5 -3 12 4 6 3 8 -4 4 -6 -3 -17 1 -26 9 -8
9 -19 16 -23 16 -4 0 -7 9 -5 19 2 11 -2 20 -8 20 -6 0 -8 5 -4 11 3 6 -1 10
-12 9 -33 -4 -45 0 -38 11 5 8 9 8 14 -1 5 -8 10 -8 14 -2 3 5 -1 12 -9 16 -8
3 -17 1 -21 -5z m-286 -86 c-3 -44 -5 -48 -30 -51 -19 -2 -28 1 -28 11 0 10 7
13 20 10 18 -5 20 0 20 36 0 22 5 41 11 41 6 0 9 -19 7 -47z m116 31 c32 -32
11 -84 -34 -84 -29 0 -50 22 -50 54 0 20 28 46 50 46 10 0 26 -7 34 -16z m111
-9 c1 -11 4 -26 9 -33 12 -19 -13 -42 -45 -42 -28 0 -29 2 -29 51 l0 50 33 -3
c24 -2 32 -8 32 -23z m103 7 c3 -9 -3 -11 -24 -6 -19 5 -25 4 -20 -5 4 -6 13
-11 20 -11 8 0 19 -7 26 -15 10 -12 10 -18 0 -31 -14 -16 -67 -16 -62 1 2 6
14 8 29 7 16 -3 23 0 19 7 -4 6 -13 11 -20 11 -8 0 -19 7 -26 15 -10 12 -10
18 0 30 15 18 51 16 58 -3z m211 4 c9 -11 10 -20 1 -36 -9 -16 -8 -25 1 -36 9
-11 8 -14 -4 -14 -9 0 -19 9 -22 20 -3 11 -11 20 -16 20 -5 0 -9 -9 -9 -20 0
-11 -4 -20 -10 -20 -5 0 -10 23 -10 50 0 48 1 50 29 50 16 0 34 -6 40 -14z
m111 4 c0 -5 -11 -10 -25 -10 -14 0 -25 -4 -25 -10 0 -5 9 -10 20 -10 11 0 20
-4 20 -10 0 -5 -9 -10 -20 -10 -11 0 -20 -4 -20 -10 0 -5 11 -10 25 -10 14 0
25 -4 25 -10 0 -5 -16 -10 -35 -10 l-35 0 0 50 0 50 35 0 c19 0 35 -4 35 -10z
m98 -40 c17 -41 18 -50 6 -50 -7 0 -14 5 -14 10 0 14 -33 13 -48 -2 -6 -6 -14
-9 -17 -6 -8 7 32 98 43 98 5 0 19 -22 30 -50z m64 10 c-4 -37 -2 -40 22 -40
14 0 26 -4 26 -10 0 -5 -16 -10 -35 -10 l-35 0 0 50 c0 34 4 50 13 50 9 0 11
-12 9 -40z m-39 15 c-3 -9 -8 -14 -10 -11 -3 3 -2 9 2 15 9 16 15 13 8 -4z
m-383 -65 c0 -5 -7 -10 -15 -10 -8 0 -15 5 -15 10 0 6 7 10 15 10 8 0 15 -4
15 -10z"/>
<path d="M2264 1036 c-10 -26 4 -48 28 -44 17 2 23 10 23 28 0 18 -6 26 -23
28 -13 2 -25 -3 -28 -12z"/>
<path d="M2390 1040 c0 -5 7 -10 15 -10 8 0 15 5 15 10 0 6 -7 10 -15 10 -8 0
-15 -4 -15 -10z"/>
<path d="M2390 1000 c0 -5 9 -10 20 -10 11 0 20 5 20 10 0 6 -9 10 -20 10 -11
0 -20 -4 -20 -10z"/>
<path d="M2700 1035 c0 -10 7 -15 18 -13 21 4 19 22 -2 26 -10 2 -16 -3 -16
-13z"/>
<path d="M2920 1026 c0 -9 5 -16 10 -16 6 0 10 4 10 9 0 6 -4 13 -10 16 -5 3
-10 -1 -10 -9z"/>
<path d="M2806 1108 c3 -5 10 -6 15 -3 13 9 11 12 -6 12 -8 0 -12 -4 -9 -9z"/>
<path d="M2864 1112 c4 -3 14 -7 22 -8 9 -1 13 0 10 4 -4 3 -14 7 -22 8 -9 1
-13 0 -10 -4z"/>
<path d="M3125 1110 c-3 -5 -3 -16 2 -22 10 -17 4 -51 -11 -60 -7 -5 -6 -8 4
-8 11 0 12 -2 2 -8 -18 -12 44 -72 74 -72 13 0 32 10 44 22 17 18 20 19 20 5
0 -19 35 -24 45 -6 4 6 13 8 21 5 8 -3 11 0 8 8 -3 8 0 17 7 22 8 4 10 3 5 -4
-4 -7 -2 -12 4 -12 6 0 9 -4 5 -9 -3 -5 4 -13 16 -16 13 -4 24 -2 29 5 4 6 10
11 14 11 21 -3 26 0 20 12 -5 6 8 0 28 -15 42 -32 82 -36 97 -11 8 16 11 16
28 2 27 -23 122 -12 107 12 -3 5 0 9 5 9 6 0 11 -6 11 -14 0 -8 7 -17 16 -20
20 -8 57 22 47 37 -3 6 -1 7 6 3 6 -4 9 -12 5 -17 -3 -5 -2 -8 3 -7 4 1 18 -3
30 -10 24 -13 51 -7 71 17 8 9 11 11 8 4 -9 -17 32 -27 50 -12 11 9 18 10 22
2 10 -16 84 -13 103 4 14 11 18 11 29 -2 17 -20 37 -19 50 3 9 16 11 16 21 -1
8 -13 18 -17 35 -13 14 4 33 2 43 -3 12 -7 30 -7 50 -1 20 5 42 5 58 -1 18 -7
32 -5 54 8 16 10 29 21 29 25 0 4 8 8 18 8 14 0 13 -4 -7 -19 -17 -13 -20 -20
-11 -26 7 -4 20 1 32 12 17 18 18 23 7 41 -8 12 -20 24 -27 27 -7 2 -10 1 -7
-4 3 -5 0 -13 -6 -17 -7 -4 -9 -3 -5 4 3 6 2 13 -4 17 -15 9 -12 28 3 19 6 -4
4 2 -6 13 -9 11 -14 23 -10 26 3 4 -3 7 -13 7 -11 0 -26 6 -33 13 -11 10 -12
9 -6 -2 6 -11 4 -13 -8 -8 -9 3 -18 -1 -21 -10 -6 -14 -8 -14 -24 -1 -9 9 -23
13 -30 11 -8 -3 -10 1 -6 14 5 13 2 12 -10 -4 -10 -13 -22 -23 -28 -23 -6 0
-3 10 8 23 l19 22 -22 -19 c-13 -10 -20 -23 -16 -29 4 -6 1 -7 -8 -1 -29 18
-155 22 -144 4 3 -5 24 -10 46 -10 21 0 39 -4 39 -10 0 -5 -7 -10 -15 -10 -11
0 -15 -11 -15 -40 0 -22 -4 -40 -10 -40 -5 0 -10 18 -10 40 0 29 -4 40 -15 40
-8 0 -15 4 -15 10 0 18 -40 32 -56 19 -8 -6 -15 -9 -15 -5 -1 3 -2 12 -3 19
-2 16 -26 10 -43 -11 -12 -16 -12 -16 -13 1 0 9 -5 17 -11 17 -5 0 -8 -4 -5
-8 3 -5 -1 -9 -9 -9 -8 0 -12 5 -8 10 3 5 -4 4 -15 -2 -13 -7 -23 -7 -27 -1
-3 5 -12 7 -20 4 -8 -4 -12 -10 -9 -15 3 -5 -2 -6 -10 -3 -9 3 -13 10 -10 15
8 13 -10 11 -24 -3 -7 -7 -16 -8 -24 -2 -7 5 -26 9 -41 8 -22 -1 -27 3 -22 15
3 11 0 10 -10 -3 -23 -30 -19 -36 30 -36 25 0 45 -4 45 -10 0 -5 -8 -10 -18
-10 -14 0 -17 -7 -14 -40 3 -29 0 -40 -10 -40 -10 0 -12 11 -10 40 3 32 1 40
-13 40 -20 0 -47 25 -37 35 4 5 1 5 -5 1 -7 -4 -13 -3 -13 3 0 5 8 14 18 20
15 9 15 10 -5 8 -12 0 -21 -5 -20 -10 1 -5 -4 -12 -12 -15 -9 -3 -11 0 -6 8 4
7 -5 5 -24 -4 -17 -9 -31 -21 -31 -27 0 -6 -5 -7 -10 -4 -6 4 -7 11 -4 17 5 7
1 9 -9 5 -10 -3 -17 -2 -17 3 0 6 5 10 12 10 6 0 8 3 5 6 -4 4 -13 1 -21 -5
-8 -7 -19 -10 -25 -7 -12 8 -42 -4 -36 -14 3 -5 0 -12 -6 -16 -8 -4 -9 -3 -5
4 4 7 -4 14 -21 18 -15 3 -36 8 -45 11 -10 2 -18 0 -18 -6 0 -6 -7 -7 -17 -4
-11 4 -14 3 -9 -5 4 -7 3 -12 -2 -12 -17 0 -22 13 -9 29 11 14 10 14 -5 2 -17
-12 -23 -9 -19 12 1 5 -3 6 -9 2 -6 -3 -8 -10 -5 -15 3 -5 -7 -10 -22 -12 -16
-2 -27 -8 -26 -15 2 -7 -4 -10 -12 -7 -18 7 -19 16 -2 34 10 12 9 12 -4 2 -9
-7 -24 -10 -33 -6 -9 3 -16 1 -16 -5 0 -8 -4 -8 -14 1 -8 7 -11 18 -8 23 3 6
-5 1 -18 -10 -20 -17 -23 -18 -17 -2 7 18 2 23 -8 7z m40 -20 c3 -5 -1 -10
-10 -10 -9 0 -13 5 -10 10 3 6 8 10 10 10 2 0 7 -4 10 -10z m502 -38 c4 -8 1
-22 -5 -32 -8 -13 -7 -21 6 -34 12 -11 13 -16 3 -16 -7 0 -21 10 -32 23 l-18
22 -1 -22 c0 -46 -18 -21 -22 30 l-3 52 33 -3 c19 -3 36 -11 39 -20z m-431 -7
c15 -23 15 -27 0 -50 -29 -44 -86 -28 -86 25 0 53 57 69 86 25z m103 11 c16
-19 4 -44 -22 -48 -15 -2 -21 -9 -19 -20 2 -10 -3 -18 -10 -18 -9 0 -13 16
-13 50 0 47 1 50 26 50 15 0 32 -6 38 -14z m100 0 c12 -14 5 -45 -10 -47 -5
-1 -15 -2 -21 -3 -7 -1 -12 -9 -10 -19 2 -9 -3 -17 -11 -17 -9 0 -14 16 -16
50 -2 49 -1 50 27 50 16 0 35 -6 41 -14z m115 -2 c9 -8 16 -24 16 -34 0 -40
-60 -66 -88 -38 -28 28 -2 88 38 88 10 0 26 -7 34 -16z m266 -24 c0 -33 3 -40
20 -40 17 0 20 7 20 40 0 22 5 40 11 40 6 0 9 -19 7 -47 -3 -41 -6 -48 -26
-51 -13 -2 -30 2 -38 8 -16 14 -20 90 -4 90 6 0 10 -18 10 -40z m139 8 l21
-33 0 33 c0 17 5 32 10 32 6 0 10 -22 10 -50 0 -27 -4 -50 -9 -50 -5 0 -18 15
-30 33 l-21 32 0 -32 c0 -18 -4 -33 -10 -33 -5 0 -10 23 -10 50 0 28 4 50 9
50 5 0 18 -15 30 -32z m101 -18 c0 -33 -4 -50 -12 -50 -9 0 -13 17 -13 50 0
33 4 50 13 50 8 0 12 -17 12 -50z m150 0 c0 -27 -4 -50 -10 -50 -5 0 -10 23
-10 50 0 28 5 50 10 50 6 0 10 -22 10 -50z m100 40 c0 -5 -11 -10 -25 -10 -14
0 -25 -4 -25 -10 0 -5 11 -10 25 -10 14 0 25 -4 25 -10 0 -5 -11 -10 -25 -10
-14 0 -25 -4 -25 -10 0 -5 11 -10 25 -10 14 0 25 -4 25 -10 0 -5 -16 -10 -35
-10 l-35 0 0 50 0 50 35 0 c19 0 35 -4 35 -10z m98 -8 c3 -9 -3 -11 -22 -6
-15 3 -26 2 -26 -4 0 -5 12 -13 26 -16 19 -5 25 -12 22 -29 -2 -17 -10 -22
-32 -22 -16 0 -31 6 -34 13 -3 9 3 11 22 6 16 -4 26 -2 26 5 0 6 -6 11 -14 11
-7 0 -19 7 -26 15 -10 12 -10 18 0 30 15 18 51 16 58 -3z m-704 -47 c-4 -8
-11 -15 -16 -15 -6 0 -5 6 2 15 7 8 14 15 16 15 2 0 1 -7 -2 -15z"/>
<path d="M3620 1035 c0 -8 7 -15 15 -15 8 0 15 7 15 15 0 8 -7 15 -15 15 -8 0
-15 -7 -15 -15z"/>
<path d="M3174 1035 c-9 -23 3 -45 25 -45 23 0 32 18 19 43 -11 21 -37 22 -44
2z"/>
<path d="M3290 1035 c0 -10 7 -15 18 -13 21 4 19 22 -2 26 -10 2 -16 -3 -16
-13z"/>
<path d="M3390 1035 c0 -10 7 -15 18 -13 21 4 19 22 -2 26 -10 2 -16 -3 -16
-13z"/>
<path d="M3494 1036 c-10 -26 4 -48 28 -44 17 2 23 10 23 28 0 18 -6 26 -23
28 -13 2 -25 -3 -28 -12z"/>
<path d="M4020 1106 c7 -7 13 -7 20 0 6 6 3 10 -10 10 -13 0 -16 -4 -10 -10z"/>
<path d="M4060 1105 c-9 -10 -9 -15 -1 -15 6 0 11 5 11 11 0 5 5 7 12 3 7 -4
8 -3 4 4 -9 15 -11 15 -26 -3z"/>
<path d="M4450 1106 c7 -7 13 -7 20 0 6 6 3 10 -10 10 -13 0 -16 -4 -10 -10z"/>
<path d="M1770 1089 c0 -5 5 -7 10 -4 6 3 10 8 10 11 0 2 -4 4 -10 4 -5 0 -10
-5 -10 -11z"/>
<path d="M2955 1080 c3 -5 8 -10 11 -10 2 0 4 5 4 10 0 6 -5 10 -11 10 -5 0
-7 -4 -4 -10z"/>
<path d="M1114 1039 c-18 -20 -18 -21 -1 -30 10 -6 14 -15 11 -21 -4 -6 -3 -8
3 -5 6 4 16 0 23 -8 7 -8 18 -15 24 -15 6 0 3 5 -6 11 -10 5 -18 14 -18 20 0
6 7 6 18 2 31 -14 227 -10 245 6 21 17 21 25 1 45 -12 13 -41 16 -148 16 -122
0 -134 -2 -152 -21z m296 -14 c0 -13 -23 -15 -145 -15 -124 0 -144 2 -139 15
9 22 284 22 284 0z"/>
<path d="M4576 1038 c-18 -25 -6 -48 25 -48 11 0 19 -5 19 -11 0 -5 -4 -8 -9
-4 -5 3 -12 1 -15 -4 -4 -5 1 -8 10 -7 8 1 19 7 22 13 4 7 45 13 95 15 71 2
86 0 82 -11 -4 -11 -3 -12 10 -1 8 7 27 10 42 7 16 -4 22 -4 15 -1 -10 5 -9 9
5 19 14 11 16 18 7 32 -10 16 -29 18 -152 21 -135 2 -141 2 -156 -20z m294
-13 c0 -13 -22 -15 -140 -15 -118 0 -140 2 -140 15 0 13 22 15 140 15 118 0
140 -2 140 -15z"/>
<path d="M1920 1025 c0 -8 5 -15 10 -15 6 0 10 7 10 15 0 8 -4 15 -10 15 -5 0
-10 -7 -10 -15z"/>
</g>
</svg>
