<?xml version="1.0" standalone="no"?>
<!DOCTYPE svg PUBLIC "-//W3C//DTD SVG 20010904//EN"
 "http://www.w3.org/TR/2001/REC-SVG-20010904/DTD/svg10.dtd">
<svg version="1.0" xmlns="http://www.w3.org/2000/svg"
 width="512.000000pt" height="512.000000pt" viewBox="0 0 512.000000 512.000000"
 preserveAspectRatio="xMidYMid meet">
<g transform="translate(0.000000,512.000000) scale(0.100000,-0.100000)"
fill="#000000" stroke="none">
<path d="M1585 5061 c-46 -12 -219 -103 -325 -172 -1116 -720 -1520 -2138
-949 -3339 387 -813 1180 -1378 2079 -1481 136 -15 457 -15 585 0 609 74 1132
327 1555 751 205 205 342 390 472 636 60 114 63 122 63 189 -1 88 -37 162
-105 211 -99 72 -171 70 -355 -8 -498 -213 -1011 -234 -1525 -61 -115 38 -348
154 -461 228 -435 287 -749 727 -879 1229 -47 182 -64 319 -64 526 0 311 51
551 177 840 75 171 74 262 -3 360 -55 69 -182 113 -265 91z m158 -50 c20 -10
34 -14 30 -7 -3 6 12 -9 35 -34 23 -25 41 -51 42 -58 0 -8 5 -10 13 -6 6 4 9
4 6 0 -4 -4 -1 -26 6 -49 14 -45 7 -116 -14 -154 -6 -13 -9 -23 -6 -23 4 0 -2
-12 -13 -27 -20 -29 -37 -72 -34 -85 1 -5 -2 -8 -6 -8 -5 0 -9 -6 -9 -12 0 -7
-16 -57 -37 -110 -32 -87 -59 -183 -72 -258 -2 -14 -8 -50 -14 -80 -26 -148
-30 -478 -6 -625 22 -141 25 -154 42 -210 8 -27 16 -57 18 -65 6 -34 59 -196
69 -207 5 -7 6 -13 2 -13 -4 0 -2 -6 4 -14 7 -8 14 -27 17 -43 3 -15 12 -36
21 -45 9 -10 13 -18 9 -18 -3 0 5 -18 19 -40 14 -22 25 -44 25 -49 0 -5 12
-24 28 -42 15 -18 20 -29 12 -24 -9 5 -8 0 4 -13 11 -12 15 -22 10 -22 -5 0
-4 -4 2 -8 20 -14 73 -100 66 -107 -4 -5 -2 -5 5 -1 7 3 14 -2 18 -14 4 -11
11 -18 16 -14 5 3 8 2 7 -3 -5 -13 28 -53 37 -45 5 4 5 2 2 -4 -3 -6 5 -22 19
-37 14 -15 22 -27 20 -27 -3 0 2 -9 11 -19 9 -11 21 -17 26 -14 6 3 7 1 3 -6
-7 -11 67 -91 85 -91 4 0 11 -5 15 -12 4 -7 3 -8 -4 -4 -29 18 -8 -6 38 -42
27 -22 46 -43 42 -47 -4 -5 1 -5 10 -2 11 4 17 2 15 -5 -1 -6 8 -17 20 -23 13
-7 20 -15 16 -18 -3 -4 -1 -7 6 -7 7 0 34 -18 60 -40 26 -22 53 -40 60 -40 7
0 9 -4 6 -10 -3 -5 6 -12 20 -16 14 -3 25 -10 25 -14 0 -5 18 -16 40 -26 21
-10 37 -21 34 -26 -10 -16 7 -30 22 -17 11 9 14 9 14 0 0 -7 5 -9 10 -6 6 3
10 2 10 -4 0 -11 39 -27 55 -22 5 1 7 -1 3 -4 -4 -4 9 -16 29 -26 20 -10 39
-17 42 -14 2 3 13 -2 23 -12 10 -9 18 -13 18 -9 0 4 7 0 16 -8 8 -9 24 -16 35
-16 13 0 18 -4 13 -12 -4 -6 -3 -8 3 -5 6 4 25 0 42 -9 18 -9 37 -17 44 -18 7
-1 17 -4 22 -7 9 -6 32 -13 178 -54 97 -27 198 -45 316 -55 137 -12 401 -9
401 4 0 4 14 6 30 2 26 -5 97 5 214 29 16 3 38 11 48 16 11 6 22 8 25 5 3 -3
13 -1 22 3 9 5 32 11 51 15 37 5 113 30 133 43 14 9 19 10 49 12 12 0 18 4 15
8 -4 3 19 15 51 25 31 11 64 25 72 32 28 24 44 30 35 15 -7 -11 -6 -12 6 -3
22 19 88 34 95 23 3 -6 13 -9 22 -8 10 1 26 1 37 0 23 -1 131 -67 129 -79 -1
-4 6 -18 15 -32 10 -16 17 -53 19 -105 4 -88 -5 -114 -87 -254 -17 -28 -29
-51 -26 -51 2 0 -15 -28 -39 -63 -23 -34 -62 -91 -86 -127 -25 -36 -48 -66
-52 -68 -4 -2 -24 -27 -45 -55 -20 -29 -50 -64 -65 -78 -15 -14 -25 -29 -21
-33 4 -4 0 -4 -9 -1 -9 4 -19 1 -24 -6 -5 -8 -3 -10 7 -4 8 5 5 -2 -6 -15 -41
-49 -56 -61 -67 -54 -6 4 -8 3 -4 -4 3 -6 -14 -27 -39 -47 -25 -21 -42 -41
-39 -46 3 -5 1 -9 -5 -9 -5 0 -23 -11 -39 -25 -16 -13 -32 -22 -36 -18 -3 3
-6 1 -6 -5 0 -16 -75 -83 -111 -101 -16 -7 -29 -17 -29 -22 0 -5 -5 -9 -11 -9
-7 0 -18 -8 -25 -17 -7 -10 -16 -18 -21 -18 -8 -1 -67 -36 -134 -81 -19 -13
-40 -24 -47 -24 -7 0 -12 -4 -12 -9 0 -8 -29 -23 -50 -26 -3 0 -56 -26 -118
-58 -61 -31 -115 -57 -120 -58 -9 -2 -52 -17 -77 -28 -25 -11 -66 -25 -125
-42 -25 -7 -49 -14 -55 -15 -52 -15 -93 -26 -110 -29 -11 -2 -22 -4 -25 -6 -3
-1 -9 -3 -15 -4 -71 -12 -103 -19 -119 -27 -14 -8 -17 -7 -10 4 6 11 5 11 -8
0 -9 -7 -20 -12 -24 -10 -5 1 -69 -4 -143 -11 -126 -13 -503 -10 -616 5 -22 3
-54 6 -72 7 -17 1 -30 5 -27 8 3 6 -72 19 -128 22 -14 1 -24 6 -21 10 3 5 -1
7 -8 6 -8 -2 -25 0 -39 4 -14 4 -43 13 -65 18 -22 6 -49 16 -61 21 -11 5 -24
8 -30 7 -5 -1 -20 2 -34 8 -38 17 -164 65 -175 67 -5 1 -32 13 -60 26 -27 12
-51 21 -51 19 -1 -2 -11 4 -21 14 -11 9 -23 14 -26 10 -4 -3 -7 -1 -7 5 0 7
-6 12 -12 13 -7 0 -33 14 -58 29 -42 27 -104 59 -115 59 -3 0 -11 5 -18 11 -6
6 -41 32 -77 58 -36 26 -66 50 -68 54 -2 5 -12 8 -22 8 -11 0 -23 6 -27 13 -4
7 -28 28 -53 47 -25 19 -52 41 -61 49 -8 9 -30 28 -48 43 -19 17 -29 33 -25
39 5 8 3 9 -5 4 -8 -4 -42 22 -94 76 -45 45 -75 79 -67 74 8 -5 -3 9 -25 30
-22 21 -43 38 -47 37 -5 -1 -7 1 -7 6 3 17 -1 35 -7 29 -6 -6 -54 45 -54 58 0
4 -10 16 -22 26 -11 11 -18 19 -14 19 6 0 -6 18 -57 85 -40 53 -95 144 -90
149 4 3 1 6 -5 6 -7 0 -11 4 -9 8 1 5 -11 30 -28 56 -16 26 -28 48 -25 49 3 1
-5 16 -18 34 -12 17 -22 33 -22 36 0 2 -10 26 -22 53 -11 27 -21 50 -20 51 1
2 -10 29 -25 60 -28 64 -73 193 -67 193 2 0 -1 12 -7 28 -21 51 -53 190 -65
277 -3 22 -10 60 -15 85 -17 75 -23 549 -9 670 7 58 14 114 17 125 2 11 6 34
8 50 3 17 7 41 10 55 3 14 8 37 10 51 2 15 12 53 21 85 10 33 19 64 20 71 4
25 47 150 64 188 21 48 32 76 35 90 7 31 127 265 136 265 6 0 8 4 5 8 -3 5 9
29 27 53 17 24 25 40 17 35 -11 -6 -11 -4 1 6 9 7 21 23 28 36 7 13 17 20 24
16 7 -4 9 -4 5 1 -4 4 -3 14 3 22 6 7 8 13 3 13 -4 0 1 7 12 16 10 8 12 12 4
8 -8 -4 6 16 32 45 26 29 46 56 45 60 -1 4 13 20 31 35 17 15 32 34 32 41 0 7
19 27 42 44 23 17 38 31 32 31 -5 0 0 7 10 15 11 8 17 15 13 15 -8 0 92 98
165 163 82 72 101 87 108 87 4 0 26 18 50 40 24 22 49 40 56 40 7 0 14 3 16 8
5 11 66 52 78 52 6 0 9 4 6 8 -3 5 10 15 29 22 19 8 35 17 35 22 0 4 7 8 15 8
8 0 15 5 15 10 0 6 7 10 16 10 9 0 30 10 47 22 17 12 38 23 46 25 9 1 17 7 19
13 2 5 8 8 13 4 5 -3 9 0 9 7 0 7 3 10 6 6 3 -3 20 1 37 8 47 21 145 19 190
-4z"/>
<path d="M1081 4073 c-35 -37 -68 -77 -74 -90 -5 -13 -13 -23 -17 -23 -4 0
-23 -25 -41 -55 -18 -30 -37 -55 -41 -55 -4 0 -8 -7 -8 -15 0 -8 -5 -15 -11
-15 -5 0 -7 -4 -4 -10 3 -5 2 -10 -4 -10 -6 0 -13 -11 -17 -25 -3 -14 -11 -25
-17 -25 -6 0 -7 -3 -4 -7 4 -3 1 -13 -7 -22 -31 -36 -147 -286 -165 -358 -6
-21 -21 -74 -35 -118 -24 -79 -31 -110 -42 -190 -3 -22 -10 -56 -16 -75 -17
-61 -20 -452 -3 -565 17 -119 23 -152 32 -185 3 -14 6 -29 5 -33 -3 -13 98
-310 114 -334 8 -13 12 -23 9 -23 -3 0 2 -15 12 -33 9 -17 18 -34 18 -37 4
-18 61 -126 70 -132 7 -5 6 -8 -2 -8 -6 0 2 -14 19 -32 16 -17 41 -52 56 -77
36 -63 138 -198 183 -244 21 -20 35 -37 31 -37 -14 0 238 -231 278 -255 27
-15 74 -49 80 -56 12 -15 116 -79 128 -79 7 0 10 -5 6 -12 -4 -7 -3 -8 4 -4 7
4 27 -4 45 -18 19 -15 37 -26 40 -26 4 0 32 -12 64 -27 32 -14 61 -25 66 -25
4 1 7 -2 7 -6 0 -5 30 -19 68 -31 37 -13 74 -25 82 -29 8 -3 18 -6 23 -7 4 -2
10 -4 15 -5 4 -1 11 -2 16 -1 4 1 14 -3 21 -9 19 -16 115 -42 131 -36 8 3 14
1 14 -5 0 -6 9 -8 21 -4 12 4 19 3 16 -2 -3 -5 2 -9 11 -10 37 -2 110 -13 157
-24 72 -17 453 -17 535 0 61 13 113 21 153 24 9 1 17 5 17 8 0 4 13 7 28 7 33
-1 186 42 190 54 2 4 11 8 20 8 28 1 123 36 185 69 31 16 58 30 60 29 6 -4 87
37 87 44 0 4 7 8 15 8 8 0 15 4 15 9 0 5 7 11 14 14 10 4 13 1 9 -10 -4 -9 4
-5 19 9 13 12 33 29 44 35 10 7 36 24 56 37 20 13 40 21 44 18 4 -4 4 -1 0 6
-4 7 -1 12 8 12 9 0 16 4 16 9 0 5 8 12 18 15 9 4 38 25 64 49 25 23 64 57 86
75 30 24 40 38 37 54 -6 30 -23 38 -70 33 -132 -14 -194 -17 -320 -16 -174 2
-246 7 -310 19 -27 5 -57 10 -65 10 -22 2 -209 40 -250 51 -19 6 -46 12 -60
15 -41 9 -249 83 -304 109 -28 13 -62 28 -76 32 -30 9 -108 52 -132 73 -10 8
-18 12 -18 7 0 -4 -7 -2 -15 5 -8 7 -15 9 -15 4 0 -4 -7 1 -15 12 -8 10 -15
15 -15 9 0 -6 -3 -6 -8 1 -4 6 -34 26 -67 44 -33 19 -66 40 -73 47 -7 7 -18
13 -23 13 -5 0 -8 3 -7 8 2 4 -1 9 -7 10 -5 2 -16 9 -24 15 -12 10 -13 9 -6
-3 4 -8 -1 -6 -12 5 -37 36 -61 53 -67 48 -3 -4 -6 1 -6 10 0 9 -5 19 -12 23
-7 5 -8 3 -3 -7 5 -8 -12 4 -36 26 -108 96 -131 115 -141 115 -6 0 -8 3 -5 6
3 4 -16 27 -43 52 -27 25 -47 49 -44 54 3 5 1 7 -3 6 -5 -2 -38 31 -73 72 -36
41 -76 86 -90 99 -14 14 -23 25 -20 25 3 1 -8 18 -23 38 -16 20 -26 42 -22 47
3 6 0 8 -8 5 -8 -3 -17 1 -20 9 -3 8 -32 55 -63 104 -32 48 -57 91 -56 96 1 4
-2 7 -7 7 -5 0 -12 10 -16 23 -4 12 -8 24 -9 27 -7 20 -41 76 -48 81 -5 3 -9
8 -8 10 1 2 -4 18 -10 34 -7 17 -13 35 -14 40 -1 6 -14 35 -29 65 -25 53 -37
84 -42 105 -9 35 -50 142 -59 154 -8 11 -8 13 1 8 11 -7 10 -2 -15 73 -3 8 -7
26 -9 40 -2 14 -8 39 -13 55 -16 55 -43 220 -55 345 -11 114 -5 426 10 518 6
32 -9 65 -31 69 -6 1 -39 -28 -73 -64z m78 10 c-17 -66 -23 -389 -10 -531 68
-763 439 -1433 1050 -1893 377 -284 851 -466 1325 -510 125 -11 501 -7 571 7
30 5 29 5 -15 -36 -257 -233 -594 -407 -943 -484 -170 -38 -263 -47 -456 -47
-197 0 -331 16 -512 61 -731 182 -1321 766 -1513 1500 -52 198 -60 269 -60
530 -1 215 2 260 22 365 57 300 157 547 317 790 68 102 212 283 226 285 4 0 3
-17 -2 -37z"/>
<path d="M745 1989 c-4 -6 -5 -12 -2 -15 2 -3 7 2 10 11 7 17 1 20 -8 4z"/>
<path d="M1025 1481 c-3 -5 -2 -12 3 -15 5 -3 9 1 9 9 0 17 -3 19 -12 6z"/>
<path d="M1365 5031 c-3 -5 -2 -12 3 -15 5 -3 9 1 9 9 0 17 -3 19 -12 6z"/>
<path d="M1905 4961 c-3 -5 -2 -12 3 -15 5 -3 9 1 9 9 0 17 -3 19 -12 6z"/>
<path d="M1226 4932 c-3 -5 1 -9 9 -9 8 0 12 4 9 9 -3 4 -7 8 -9 8 -2 0 -6 -4
-9 -8z"/>
<path d="M749 4533 c-13 -16 -12 -17 4 -4 9 7 17 15 17 17 0 8 -8 3 -21 -13z"/>
<path d="M1905 2949 c-4 -6 -5 -12 -2 -15 2 -3 7 2 10 11 7 17 1 20 -8 4z"/>
<path d="M683 923 c4 -6 3 -13 -3 -15 -6 -2 0 -9 12 -17 22 -13 22 -13 8 4 -8
10 -13 20 -12 22 2 3 0 8 -4 11 -4 4 -4 2 -1 -5z"/>
<path d="M910 696 c0 -2 8 -10 18 -17 15 -13 16 -12 3 4 -13 16 -21 21 -21 13z"/>
<path d="M1230 416 c0 -2 7 -7 16 -10 8 -3 12 -2 9 4 -6 10 -25 14 -25 6z"/>
</g>
</svg>
